G75*
G70*
%OFA0B0*%
%FSLAX24Y24*%
%IPPOS*%
%LPD*%
%AMOC8*
5,1,8,0,0,1.08239X$1,22.5*
%
%ADD10C,0.0560*%
%ADD11C,0.0131*%
%ADD12OC8,0.0595*%
%ADD13R,0.0513X0.0474*%
%ADD14R,0.2470X0.2470*%
%ADD15C,0.0820*%
%ADD16C,0.0640*%
%ADD17C,0.0480*%
%ADD18C,0.0360*%
%ADD19OC8,0.0476*%
D10*
X003717Y004197D03*
X014207Y017547D03*
D11*
X012785Y016899D02*
X012719Y016965D01*
X012935Y016965D01*
X013087Y016813D01*
X013087Y016597D01*
X012935Y016445D01*
X012719Y016445D01*
X012567Y016597D01*
X012567Y016813D01*
X012719Y016965D01*
X012760Y016867D01*
X012894Y016867D01*
X012989Y016772D01*
X012989Y016638D01*
X012894Y016543D01*
X012760Y016543D01*
X012665Y016638D01*
X012665Y016772D01*
X012760Y016867D01*
X012801Y016770D01*
X012853Y016770D01*
X012892Y016731D01*
X012892Y016679D01*
X012853Y016640D01*
X012801Y016640D01*
X012762Y016679D01*
X012762Y016731D01*
X012801Y016770D01*
X012228Y016342D02*
X012162Y016408D01*
X012378Y016408D01*
X012530Y016256D01*
X012530Y016040D01*
X012378Y015888D01*
X012162Y015888D01*
X012010Y016040D01*
X012010Y016256D01*
X012162Y016408D01*
X012203Y016310D01*
X012337Y016310D01*
X012432Y016215D01*
X012432Y016081D01*
X012337Y015986D01*
X012203Y015986D01*
X012108Y016081D01*
X012108Y016215D01*
X012203Y016310D01*
X012244Y016213D01*
X012296Y016213D01*
X012335Y016174D01*
X012335Y016122D01*
X012296Y016083D01*
X012244Y016083D01*
X012205Y016122D01*
X012205Y016174D01*
X012244Y016213D01*
X012924Y015646D02*
X012858Y015712D01*
X013074Y015712D01*
X013226Y015560D01*
X013226Y015344D01*
X013074Y015192D01*
X012858Y015192D01*
X012706Y015344D01*
X012706Y015560D01*
X012858Y015712D01*
X012899Y015614D01*
X013033Y015614D01*
X013128Y015519D01*
X013128Y015385D01*
X013033Y015290D01*
X012899Y015290D01*
X012804Y015385D01*
X012804Y015519D01*
X012899Y015614D01*
X012940Y015517D01*
X012992Y015517D01*
X013031Y015478D01*
X013031Y015426D01*
X012992Y015387D01*
X012940Y015387D01*
X012901Y015426D01*
X012901Y015478D01*
X012940Y015517D01*
X013481Y016203D02*
X013415Y016269D01*
X013631Y016269D01*
X013783Y016117D01*
X013783Y015901D01*
X013631Y015749D01*
X013415Y015749D01*
X013263Y015901D01*
X013263Y016117D01*
X013415Y016269D01*
X013456Y016171D01*
X013590Y016171D01*
X013685Y016076D01*
X013685Y015942D01*
X013590Y015847D01*
X013456Y015847D01*
X013361Y015942D01*
X013361Y016076D01*
X013456Y016171D01*
X013497Y016074D01*
X013549Y016074D01*
X013588Y016035D01*
X013588Y015983D01*
X013549Y015944D01*
X013497Y015944D01*
X013458Y015983D01*
X013458Y016035D01*
X013497Y016074D01*
X014188Y015495D02*
X014122Y015561D01*
X014338Y015561D01*
X014490Y015409D01*
X014490Y015193D01*
X014338Y015041D01*
X014122Y015041D01*
X013970Y015193D01*
X013970Y015409D01*
X014122Y015561D01*
X014163Y015463D01*
X014297Y015463D01*
X014392Y015368D01*
X014392Y015234D01*
X014297Y015139D01*
X014163Y015139D01*
X014068Y015234D01*
X014068Y015368D01*
X014163Y015463D01*
X014204Y015366D01*
X014256Y015366D01*
X014295Y015327D01*
X014295Y015275D01*
X014256Y015236D01*
X014204Y015236D01*
X014165Y015275D01*
X014165Y015327D01*
X014204Y015366D01*
X013631Y014939D02*
X013565Y015005D01*
X013781Y015005D01*
X013933Y014853D01*
X013933Y014637D01*
X013781Y014485D01*
X013565Y014485D01*
X013413Y014637D01*
X013413Y014853D01*
X013565Y015005D01*
X013606Y014907D01*
X013740Y014907D01*
X013835Y014812D01*
X013835Y014678D01*
X013740Y014583D01*
X013606Y014583D01*
X013511Y014678D01*
X013511Y014812D01*
X013606Y014907D01*
X013647Y014810D01*
X013699Y014810D01*
X013738Y014771D01*
X013738Y014719D01*
X013699Y014680D01*
X013647Y014680D01*
X013608Y014719D01*
X013608Y014771D01*
X013647Y014810D01*
X012078Y017606D02*
X012012Y017672D01*
X012228Y017672D01*
X012380Y017520D01*
X012380Y017304D01*
X012228Y017152D01*
X012012Y017152D01*
X011860Y017304D01*
X011860Y017520D01*
X012012Y017672D01*
X012053Y017574D01*
X012187Y017574D01*
X012282Y017479D01*
X012282Y017345D01*
X012187Y017250D01*
X012053Y017250D01*
X011958Y017345D01*
X011958Y017479D01*
X012053Y017574D01*
X012094Y017477D01*
X012146Y017477D01*
X012185Y017438D01*
X012185Y017386D01*
X012146Y017347D01*
X012094Y017347D01*
X012055Y017386D01*
X012055Y017438D01*
X012094Y017477D01*
X011521Y017049D02*
X011455Y017115D01*
X011671Y017115D01*
X011823Y016963D01*
X011823Y016747D01*
X011671Y016595D01*
X011455Y016595D01*
X011303Y016747D01*
X011303Y016963D01*
X011455Y017115D01*
X011496Y017017D01*
X011630Y017017D01*
X011725Y016922D01*
X011725Y016788D01*
X011630Y016693D01*
X011496Y016693D01*
X011401Y016788D01*
X011401Y016922D01*
X011496Y017017D01*
X011537Y016920D01*
X011589Y016920D01*
X011628Y016881D01*
X011628Y016829D01*
X011589Y016790D01*
X011537Y016790D01*
X011498Y016829D01*
X011498Y016881D01*
X011537Y016920D01*
D12*
X013429Y008912D03*
X013429Y007912D03*
X013429Y006912D03*
X013429Y005912D03*
X013429Y004912D03*
X013429Y003912D03*
X013429Y002912D03*
X014429Y002912D03*
X014429Y003912D03*
X014429Y004912D03*
X014429Y005912D03*
X014429Y006912D03*
X014429Y007912D03*
X014429Y008912D03*
D13*
X012337Y006421D03*
X012337Y005752D03*
X006515Y013667D03*
X006515Y014336D03*
X008269Y014476D03*
X008269Y013807D03*
D14*
G36*
X003785Y008999D02*
X002039Y010745D01*
X003785Y012491D01*
X005531Y010745D01*
X003785Y008999D01*
G37*
G36*
X007265Y005519D02*
X005519Y007265D01*
X007265Y009011D01*
X009011Y007265D01*
X007265Y005519D01*
G37*
G36*
X010745Y002039D02*
X008999Y003785D01*
X010745Y005531D01*
X012491Y003785D01*
X010745Y002039D01*
G37*
D15*
X002935Y013761D03*
X002935Y014761D03*
D16*
X003015Y017815D03*
X003015Y018603D03*
X003802Y018603D03*
X003802Y017815D03*
X004589Y017815D03*
X004589Y018603D03*
X005377Y018603D03*
X005377Y017815D03*
X006164Y017815D03*
X006164Y018603D03*
X006952Y018603D03*
X006952Y017815D03*
X007739Y017815D03*
X007739Y018603D03*
X008526Y018603D03*
X008526Y017815D03*
X009314Y017815D03*
X009314Y018603D03*
X010101Y018603D03*
X010101Y017815D03*
D17*
X008457Y016987D03*
X007597Y016037D03*
X007147Y016757D03*
X006527Y014847D03*
X004827Y014567D03*
X006977Y011537D03*
X007577Y011667D03*
D18*
X012957Y012027D03*
X013237Y012027D03*
X013517Y012027D03*
D19*
X002787Y012337D03*
M02*
