G75*
G70*
%OFA0B0*%
%FSLAX24Y24*%
%IPPOS*%
%LPD*%
%AMOC8*
5,1,8,0,0,1.08239X$1,22.5*
%
%ADD10C,0.0560*%
%ADD11C,0.0160*%
%ADD12C,0.0120*%
%ADD13C,0.0180*%
%ADD14R,0.0200X0.0470*%
%ADD15C,0.0131*%
%ADD16OC8,0.0595*%
%ADD17R,0.0513X0.0474*%
%ADD18R,0.0671X0.0867*%
%ADD19C,0.0820*%
%ADD20R,0.0493X0.0505*%
%ADD21R,0.0474X0.0474*%
%ADD22C,0.0640*%
%ADD23R,0.0986X0.0710*%
%ADD24R,0.0710X0.0986*%
%ADD25R,0.0474X0.0513*%
%ADD26C,0.0142*%
%ADD27C,0.0480*%
%ADD28C,0.0480*%
%ADD29R,0.0190X0.0280*%
%ADD30R,0.0870X0.0430*%
%ADD31C,0.0360*%
%ADD32R,0.0552X0.0552*%
%ADD33OC8,0.0476*%
D10*
X003717Y004197D03*
X014207Y017547D03*
D11*
X009277Y015592D02*
X009277Y015462D01*
X009022Y015462D02*
X009022Y015592D01*
X008767Y015592D02*
X008767Y015462D01*
X008512Y015462D02*
X008512Y015592D01*
X008252Y015592D02*
X008252Y015462D01*
X007997Y015462D02*
X007997Y015592D01*
X007742Y015592D02*
X007742Y015462D01*
X007487Y015462D02*
X007487Y015592D01*
X007227Y015592D02*
X007227Y015462D01*
X006972Y015462D02*
X006972Y015592D01*
X006717Y015592D02*
X006717Y015462D01*
X006462Y015462D02*
X006462Y015592D01*
X006207Y015592D02*
X006207Y015462D01*
X005952Y015462D02*
X005952Y015592D01*
X005692Y015592D02*
X005692Y015462D01*
X005692Y012537D02*
X005692Y012407D01*
X005952Y012407D02*
X005952Y012542D01*
X006207Y012537D02*
X006207Y012407D01*
X006462Y012407D02*
X006462Y012537D01*
X006717Y012537D02*
X006717Y012407D01*
X006972Y012407D02*
X006972Y012537D01*
X007227Y012537D02*
X007227Y012407D01*
X007487Y012407D02*
X007487Y012537D01*
X007742Y012537D02*
X007742Y012407D01*
X007997Y012407D02*
X007997Y012537D01*
X008252Y012532D02*
X008252Y012407D01*
X008507Y012407D02*
X008507Y012537D01*
X008767Y012537D02*
X008767Y012407D01*
X009022Y012407D02*
X009022Y012537D01*
X009277Y012537D02*
X009277Y012407D01*
D12*
X012562Y011652D02*
X012752Y011652D01*
X012757Y011657D01*
X012942Y011602D02*
X012942Y011462D01*
X013137Y011467D02*
X013137Y011607D01*
X013532Y011602D02*
X013532Y011442D01*
X013757Y011657D02*
X013887Y011657D01*
X013887Y012397D02*
X013732Y012397D01*
X013562Y012582D02*
X012707Y012582D01*
D13*
X012717Y012397D02*
X012597Y012397D01*
D14*
X009277Y012654D03*
X009021Y012654D03*
X008765Y012654D03*
X008509Y012654D03*
X008253Y012654D03*
X007998Y012654D03*
X007742Y012654D03*
X007486Y012654D03*
X007230Y012654D03*
X006974Y012654D03*
X006718Y012654D03*
X006462Y012654D03*
X006206Y012654D03*
X005950Y012654D03*
X005694Y012654D03*
X005694Y015385D03*
X005950Y015385D03*
X006206Y015385D03*
X006462Y015385D03*
X006718Y015385D03*
X006974Y015385D03*
X007230Y015385D03*
X007486Y015385D03*
X007742Y015385D03*
X007998Y015385D03*
X008253Y015385D03*
X008509Y015385D03*
X008765Y015385D03*
X009021Y015385D03*
X009277Y015385D03*
D15*
X011521Y017049D02*
X011455Y017115D01*
X011671Y017115D01*
X011823Y016963D01*
X011823Y016747D01*
X011671Y016595D01*
X011455Y016595D01*
X011303Y016747D01*
X011303Y016963D01*
X011455Y017115D01*
X011496Y017017D01*
X011630Y017017D01*
X011725Y016922D01*
X011725Y016788D01*
X011630Y016693D01*
X011496Y016693D01*
X011401Y016788D01*
X011401Y016922D01*
X011496Y017017D01*
X011537Y016920D01*
X011589Y016920D01*
X011628Y016881D01*
X011628Y016829D01*
X011589Y016790D01*
X011537Y016790D01*
X011498Y016829D01*
X011498Y016881D01*
X011537Y016920D01*
X012078Y017606D02*
X012012Y017672D01*
X012228Y017672D01*
X012380Y017520D01*
X012380Y017304D01*
X012228Y017152D01*
X012012Y017152D01*
X011860Y017304D01*
X011860Y017520D01*
X012012Y017672D01*
X012053Y017574D01*
X012187Y017574D01*
X012282Y017479D01*
X012282Y017345D01*
X012187Y017250D01*
X012053Y017250D01*
X011958Y017345D01*
X011958Y017479D01*
X012053Y017574D01*
X012094Y017477D01*
X012146Y017477D01*
X012185Y017438D01*
X012185Y017386D01*
X012146Y017347D01*
X012094Y017347D01*
X012055Y017386D01*
X012055Y017438D01*
X012094Y017477D01*
X012785Y016899D02*
X012719Y016965D01*
X012935Y016965D01*
X013087Y016813D01*
X013087Y016597D01*
X012935Y016445D01*
X012719Y016445D01*
X012567Y016597D01*
X012567Y016813D01*
X012719Y016965D01*
X012760Y016867D01*
X012894Y016867D01*
X012989Y016772D01*
X012989Y016638D01*
X012894Y016543D01*
X012760Y016543D01*
X012665Y016638D01*
X012665Y016772D01*
X012760Y016867D01*
X012801Y016770D01*
X012853Y016770D01*
X012892Y016731D01*
X012892Y016679D01*
X012853Y016640D01*
X012801Y016640D01*
X012762Y016679D01*
X012762Y016731D01*
X012801Y016770D01*
X012228Y016342D02*
X012162Y016408D01*
X012378Y016408D01*
X012530Y016256D01*
X012530Y016040D01*
X012378Y015888D01*
X012162Y015888D01*
X012010Y016040D01*
X012010Y016256D01*
X012162Y016408D01*
X012203Y016310D01*
X012337Y016310D01*
X012432Y016215D01*
X012432Y016081D01*
X012337Y015986D01*
X012203Y015986D01*
X012108Y016081D01*
X012108Y016215D01*
X012203Y016310D01*
X012244Y016213D01*
X012296Y016213D01*
X012335Y016174D01*
X012335Y016122D01*
X012296Y016083D01*
X012244Y016083D01*
X012205Y016122D01*
X012205Y016174D01*
X012244Y016213D01*
X012924Y015646D02*
X012858Y015712D01*
X013074Y015712D01*
X013226Y015560D01*
X013226Y015344D01*
X013074Y015192D01*
X012858Y015192D01*
X012706Y015344D01*
X012706Y015560D01*
X012858Y015712D01*
X012899Y015614D01*
X013033Y015614D01*
X013128Y015519D01*
X013128Y015385D01*
X013033Y015290D01*
X012899Y015290D01*
X012804Y015385D01*
X012804Y015519D01*
X012899Y015614D01*
X012940Y015517D01*
X012992Y015517D01*
X013031Y015478D01*
X013031Y015426D01*
X012992Y015387D01*
X012940Y015387D01*
X012901Y015426D01*
X012901Y015478D01*
X012940Y015517D01*
X013481Y016203D02*
X013415Y016269D01*
X013631Y016269D01*
X013783Y016117D01*
X013783Y015901D01*
X013631Y015749D01*
X013415Y015749D01*
X013263Y015901D01*
X013263Y016117D01*
X013415Y016269D01*
X013456Y016171D01*
X013590Y016171D01*
X013685Y016076D01*
X013685Y015942D01*
X013590Y015847D01*
X013456Y015847D01*
X013361Y015942D01*
X013361Y016076D01*
X013456Y016171D01*
X013497Y016074D01*
X013549Y016074D01*
X013588Y016035D01*
X013588Y015983D01*
X013549Y015944D01*
X013497Y015944D01*
X013458Y015983D01*
X013458Y016035D01*
X013497Y016074D01*
X014188Y015495D02*
X014122Y015561D01*
X014338Y015561D01*
X014490Y015409D01*
X014490Y015193D01*
X014338Y015041D01*
X014122Y015041D01*
X013970Y015193D01*
X013970Y015409D01*
X014122Y015561D01*
X014163Y015463D01*
X014297Y015463D01*
X014392Y015368D01*
X014392Y015234D01*
X014297Y015139D01*
X014163Y015139D01*
X014068Y015234D01*
X014068Y015368D01*
X014163Y015463D01*
X014204Y015366D01*
X014256Y015366D01*
X014295Y015327D01*
X014295Y015275D01*
X014256Y015236D01*
X014204Y015236D01*
X014165Y015275D01*
X014165Y015327D01*
X014204Y015366D01*
X013631Y014939D02*
X013565Y015005D01*
X013781Y015005D01*
X013933Y014853D01*
X013933Y014637D01*
X013781Y014485D01*
X013565Y014485D01*
X013413Y014637D01*
X013413Y014853D01*
X013565Y015005D01*
X013606Y014907D01*
X013740Y014907D01*
X013835Y014812D01*
X013835Y014678D01*
X013740Y014583D01*
X013606Y014583D01*
X013511Y014678D01*
X013511Y014812D01*
X013606Y014907D01*
X013647Y014810D01*
X013699Y014810D01*
X013738Y014771D01*
X013738Y014719D01*
X013699Y014680D01*
X013647Y014680D01*
X013608Y014719D01*
X013608Y014771D01*
X013647Y014810D01*
D16*
X013429Y008912D03*
X013429Y007912D03*
X013429Y006912D03*
X013429Y005912D03*
X013429Y004912D03*
X013429Y003912D03*
X013429Y002912D03*
X014429Y002912D03*
X014429Y003912D03*
X014429Y004912D03*
X014429Y005912D03*
X014429Y006912D03*
X014429Y007912D03*
X014429Y008912D03*
D17*
X012197Y004771D03*
X012197Y004102D03*
X008345Y010098D03*
X008345Y010767D03*
X004497Y008741D03*
X004497Y008072D03*
D18*
X007967Y004500D03*
X009148Y004500D03*
D19*
X002935Y013761D03*
X002935Y014761D03*
D20*
X007275Y007935D03*
X007964Y007935D03*
X008263Y005685D03*
X008952Y005685D03*
X012982Y010897D03*
X013671Y010897D03*
D21*
X011741Y011084D03*
X011741Y010297D03*
D22*
X010101Y017815D03*
X010101Y018603D03*
X009314Y018603D03*
X009314Y017815D03*
X008526Y017815D03*
X008526Y018603D03*
X007739Y018603D03*
X007739Y017815D03*
X006952Y017815D03*
X006952Y018603D03*
X006164Y018603D03*
X006164Y017815D03*
X005377Y017815D03*
X005377Y018603D03*
X004589Y018603D03*
X004589Y017815D03*
X003802Y017815D03*
X003802Y018603D03*
X003015Y018603D03*
X003015Y017815D03*
D23*
X007336Y003057D03*
X009817Y003057D03*
D24*
X003297Y006286D03*
X003297Y008767D03*
D25*
X003431Y015967D03*
X002762Y015967D03*
X011722Y009337D03*
X012391Y009337D03*
X010881Y004487D03*
X010212Y004487D03*
D26*
X003296Y016531D02*
X003296Y016863D01*
X003628Y016863D01*
X003628Y016531D01*
X003296Y016531D01*
X003296Y016672D02*
X003628Y016672D01*
X003628Y016813D02*
X003296Y016813D01*
X002605Y016863D02*
X002605Y016531D01*
X002605Y016863D02*
X002937Y016863D01*
X002937Y016531D01*
X002605Y016531D01*
X002605Y016672D02*
X002937Y016672D01*
X002937Y016813D02*
X002605Y016813D01*
D27*
X004187Y016597D03*
X004447Y017107D03*
X005107Y017117D03*
X005777Y016997D03*
X006587Y016817D03*
X007287Y017097D03*
X008117Y016757D03*
X008757Y017147D03*
X009337Y017137D03*
X009627Y016477D03*
X009507Y016007D03*
X010407Y015887D03*
X011687Y018737D03*
X009787Y012837D03*
X009227Y012057D03*
X008147Y012027D03*
X006487Y012097D03*
X005767Y011907D03*
X005277Y012237D03*
X004457Y012677D03*
X004757Y013097D03*
X009547Y005677D03*
X014287Y009907D03*
X014337Y011667D03*
X010897Y012267D03*
D28*
X010157Y015337D02*
X010157Y015337D01*
X010157Y015337D01*
X010157Y015337D01*
X010157Y015337D01*
X010157Y015337D01*
X010157Y015337D01*
X010157Y015337D01*
X010157Y015337D01*
X010157Y015337D01*
D29*
X012747Y012397D03*
X012937Y012397D03*
X013137Y012397D03*
X013337Y012397D03*
X013537Y012397D03*
X013727Y012397D03*
X013727Y011657D03*
X013537Y011657D03*
X013337Y011657D03*
X013137Y011657D03*
X012937Y011657D03*
X012747Y011657D03*
D30*
X013237Y012027D03*
D31*
X013237Y012027D03*
X013517Y012027D03*
X012957Y012027D03*
D32*
X007367Y006357D03*
D33*
X002787Y012337D03*
M02*
