G75*
G70*
%OFA0B0*%
%FSLAX24Y24*%
%IPPOS*%
%LPD*%
%AMOC8*
5,1,8,0,0,1.08239X$1,22.5*
%
%ADD10R,0.0120X0.0390*%
%ADD11R,0.0433X0.0394*%
%ADD12R,0.0591X0.0787*%
%ADD13R,0.0413X0.0425*%
%ADD14R,0.0394X0.0394*%
%ADD15R,0.0906X0.0630*%
%ADD16R,0.0630X0.0906*%
%ADD17R,0.0394X0.0433*%
%ADD18C,0.0118*%
%ADD19R,0.0110X0.0200*%
%ADD20R,0.0790X0.0350*%
%ADD21C,0.0060*%
D10*
X005694Y012654D03*
X005950Y012654D03*
X006206Y012654D03*
X006462Y012654D03*
X006718Y012654D03*
X006974Y012654D03*
X007230Y012654D03*
X007486Y012654D03*
X007742Y012654D03*
X007998Y012654D03*
X008253Y012654D03*
X008509Y012654D03*
X008765Y012654D03*
X009021Y012654D03*
X009277Y012654D03*
X009277Y015385D03*
X009021Y015385D03*
X008765Y015385D03*
X008509Y015385D03*
X008253Y015385D03*
X007998Y015385D03*
X007742Y015385D03*
X007486Y015385D03*
X007230Y015385D03*
X006974Y015385D03*
X006718Y015385D03*
X006462Y015385D03*
X006206Y015385D03*
X005950Y015385D03*
X005694Y015385D03*
D11*
X008345Y010767D03*
X008345Y010098D03*
X004497Y008741D03*
X004497Y008072D03*
X012197Y004771D03*
X012197Y004102D03*
D12*
X009148Y004500D03*
X007967Y004500D03*
D13*
X008263Y005685D03*
X008952Y005685D03*
X007964Y007935D03*
X007275Y007935D03*
X012982Y010897D03*
X013671Y010897D03*
D14*
X011741Y011084D03*
X011741Y010297D03*
D15*
X009817Y003057D03*
X007336Y003057D03*
D16*
X003297Y006286D03*
X003297Y008767D03*
D17*
X003431Y015967D03*
X002762Y015967D03*
X011722Y009337D03*
X012391Y009337D03*
X010881Y004487D03*
X010212Y004487D03*
D18*
X003324Y016559D02*
X003324Y016835D01*
X003600Y016835D01*
X003600Y016559D01*
X003324Y016559D01*
X003324Y016676D02*
X003600Y016676D01*
X003600Y016793D02*
X003324Y016793D01*
X002633Y016835D02*
X002633Y016559D01*
X002633Y016835D02*
X002909Y016835D01*
X002909Y016559D01*
X002633Y016559D01*
X002633Y016676D02*
X002909Y016676D01*
X002909Y016793D02*
X002633Y016793D01*
D19*
X012747Y012397D03*
X012937Y012397D03*
X013137Y012397D03*
X013337Y012397D03*
X013537Y012397D03*
X013727Y012397D03*
X013727Y011657D03*
X013537Y011657D03*
X013337Y011657D03*
X013137Y011657D03*
X012937Y011657D03*
X012747Y011657D03*
D20*
X013237Y012027D03*
D21*
X013287Y011747D02*
X013287Y011557D01*
X013387Y011557D01*
X013387Y011747D01*
X013287Y011747D01*
X013187Y011747D02*
X013087Y011747D01*
X013087Y011557D01*
X013187Y011557D01*
X013187Y011747D01*
X012987Y011747D02*
X012987Y011557D01*
X012897Y011557D01*
X012897Y011747D01*
X012987Y011747D01*
X012927Y011887D02*
X013547Y011887D01*
X013547Y012167D01*
X012927Y012167D01*
X012927Y011887D01*
X012807Y011877D02*
X012807Y011977D01*
X012567Y011977D01*
X012567Y011877D01*
X012807Y011877D01*
X012797Y011747D02*
X012697Y011747D01*
X012697Y011557D01*
X012797Y011557D01*
X012797Y011747D01*
X012807Y012077D02*
X012567Y012077D01*
X012567Y012177D01*
X012807Y012177D01*
X012807Y012077D01*
X012797Y012307D02*
X012697Y012307D01*
X012697Y012497D01*
X012797Y012497D01*
X012797Y012307D01*
X012897Y012307D02*
X012897Y012497D01*
X012987Y012497D01*
X012987Y012307D01*
X012897Y012307D01*
X013087Y012307D02*
X013087Y012497D01*
X013187Y012497D01*
X013187Y012307D01*
X013087Y012307D01*
X013287Y012307D02*
X013287Y012497D01*
X013387Y012497D01*
X013387Y012307D01*
X013287Y012307D01*
X013487Y012307D02*
X013577Y012307D01*
X013577Y012497D01*
X013487Y012497D01*
X013487Y012307D01*
X013677Y012307D02*
X013677Y012497D01*
X013777Y012497D01*
X013777Y012307D01*
X013677Y012307D01*
X013667Y012177D02*
X013907Y012177D01*
X013907Y012077D01*
X013667Y012077D01*
X013667Y012177D01*
X013667Y011977D02*
X013667Y011877D01*
X013907Y011877D01*
X013907Y011977D01*
X013667Y011977D01*
X013677Y011747D02*
X013677Y011557D01*
X013777Y011557D01*
X013777Y011747D01*
X013677Y011747D01*
X013577Y011747D02*
X013577Y011557D01*
X013487Y011557D01*
X013487Y011747D01*
X013577Y011747D01*
M02*
