G75*
G70*
%OFA0B0*%
%FSLAX24Y24*%
%IPPOS*%
%LPD*%
%AMOC8*
5,1,8,0,0,1.08239X$1,22.5*
%
%ADD10C,0.0020*%
%ADD11C,0.0160*%
%ADD12C,0.0010*%
%ADD13C,0.0080*%
D10*
X006975Y013571D02*
X007155Y013571D01*
X007155Y013661D01*
X007125Y013691D01*
X007065Y013691D01*
X007035Y013661D01*
X007035Y013571D01*
X007035Y013631D02*
X006975Y013691D01*
X007065Y013755D02*
X007065Y013876D01*
X007155Y013846D02*
X007065Y013755D01*
X006975Y013846D02*
X007155Y013846D01*
X007659Y013827D02*
X007659Y013767D01*
X007689Y013737D01*
X007750Y013737D02*
X007780Y013797D01*
X007780Y013827D01*
X007750Y013857D01*
X007689Y013857D01*
X007659Y013827D01*
X007750Y013737D02*
X007840Y013737D01*
X007840Y013857D01*
X007810Y013673D02*
X007750Y013673D01*
X007720Y013643D01*
X007720Y013553D01*
X007720Y013613D02*
X007659Y013673D01*
X007659Y013553D02*
X007840Y013553D01*
X007840Y013643D01*
X007810Y013673D01*
X011707Y005793D02*
X011707Y005672D01*
X011827Y005793D01*
X011857Y005793D01*
X011887Y005762D01*
X011887Y005702D01*
X011857Y005672D01*
X011857Y005608D02*
X011797Y005608D01*
X011767Y005578D01*
X011767Y005488D01*
X011767Y005548D02*
X011707Y005608D01*
X011707Y005488D02*
X011887Y005488D01*
X011887Y005578D01*
X011857Y005608D01*
X014538Y011125D02*
X014718Y011125D01*
X014718Y011215D01*
X014688Y011245D01*
X014628Y011245D01*
X014598Y011215D01*
X014598Y011125D01*
X014568Y011309D02*
X014538Y011339D01*
X014538Y011399D01*
X014568Y011429D01*
X014538Y011493D02*
X014538Y011583D01*
X014568Y011613D01*
X014598Y011613D01*
X014628Y011583D01*
X014628Y011493D01*
X014688Y011429D02*
X014718Y011399D01*
X014718Y011339D01*
X014688Y011309D01*
X014568Y011309D01*
X014538Y011493D02*
X014718Y011493D01*
X014718Y011583D01*
X014688Y011613D01*
X014658Y011613D01*
X014628Y011583D01*
X014838Y011493D02*
X015018Y011493D01*
X015018Y011613D01*
X014928Y011553D02*
X014928Y011493D01*
X014928Y011429D02*
X014898Y011399D01*
X014898Y011309D01*
X014838Y011309D02*
X015018Y011309D01*
X015018Y011399D01*
X014988Y011429D01*
X014928Y011429D01*
X014898Y011369D02*
X014838Y011429D01*
X014838Y011245D02*
X014928Y011245D01*
X014958Y011215D01*
X014958Y011125D01*
X014838Y011125D01*
X014838Y011862D02*
X014838Y011952D01*
X014868Y011982D01*
X014898Y011982D01*
X014928Y011952D01*
X014928Y011862D01*
X014928Y011952D02*
X014958Y011982D01*
X014988Y011982D01*
X015018Y011952D01*
X015018Y011862D01*
X014838Y011862D01*
X014718Y011862D02*
X014718Y011952D01*
X014688Y011982D01*
X014628Y011982D01*
X014598Y011952D01*
X014598Y011862D01*
X014598Y011922D02*
X014538Y011982D01*
X014538Y012046D02*
X014538Y012166D01*
X014598Y012230D02*
X014538Y012290D01*
X014598Y012350D01*
X014718Y012350D01*
X014718Y012230D02*
X014598Y012230D01*
X014628Y012106D02*
X014628Y012046D01*
X014718Y012046D02*
X014538Y012046D01*
X014538Y011862D02*
X014718Y011862D01*
X014718Y012046D02*
X014718Y012166D01*
X014838Y012166D02*
X014838Y012046D01*
X015018Y012046D01*
X015018Y012230D02*
X014838Y012230D01*
X014838Y012350D01*
X014928Y012290D02*
X014928Y012230D01*
X015018Y012230D02*
X015018Y012350D01*
X015018Y012598D02*
X015018Y012688D01*
X014988Y012718D01*
X014958Y012718D01*
X014928Y012688D01*
X014928Y012598D01*
X014838Y012598D02*
X014838Y012688D01*
X014868Y012718D01*
X014898Y012718D01*
X014928Y012688D01*
X014928Y012782D02*
X014958Y012812D01*
X014958Y012872D01*
X014928Y012902D01*
X014898Y012902D01*
X014898Y012782D01*
X014868Y012782D02*
X014928Y012782D01*
X014868Y012782D02*
X014838Y012812D01*
X014838Y012872D01*
X014868Y012966D02*
X014838Y012997D01*
X014838Y013087D01*
X014928Y013087D01*
X014958Y013057D01*
X014958Y012997D01*
X014898Y012997D02*
X014898Y013087D01*
X014868Y013151D02*
X014838Y013181D01*
X014838Y013271D01*
X014868Y013335D02*
X014838Y013365D01*
X014838Y013425D01*
X014868Y013455D01*
X014928Y013455D01*
X014958Y013425D01*
X014958Y013365D01*
X014928Y013335D01*
X014868Y013335D01*
X014958Y013271D02*
X014958Y013181D01*
X014928Y013151D01*
X014868Y013151D01*
X014898Y012997D02*
X014868Y012966D01*
X014718Y012995D02*
X014718Y012874D01*
X014628Y012874D01*
X014658Y012934D01*
X014658Y012964D01*
X014628Y012995D01*
X014568Y012995D01*
X014538Y012964D01*
X014538Y012904D01*
X014568Y012874D01*
X014568Y012812D02*
X014538Y012812D01*
X014538Y012782D01*
X014568Y012782D01*
X014568Y012812D01*
X014538Y012718D02*
X014538Y012598D01*
X014658Y012718D01*
X014688Y012718D01*
X014718Y012688D01*
X014718Y012628D01*
X014688Y012598D01*
X014838Y012598D02*
X015018Y012598D01*
X014958Y013519D02*
X014838Y013519D01*
X014838Y013639D02*
X014928Y013639D01*
X014958Y013609D01*
X014958Y013519D01*
D11*
X012647Y006087D02*
X012017Y006087D01*
X006817Y013997D02*
X006217Y013997D01*
X007977Y014147D02*
X008577Y014147D01*
D12*
X007398Y014892D02*
X007398Y015082D01*
X007335Y015082D02*
X007462Y015082D01*
X007277Y015082D02*
X007277Y014892D01*
X007277Y014955D02*
X007182Y014955D01*
X007151Y014987D01*
X007151Y015050D01*
X007182Y015082D01*
X007277Y015082D01*
X007093Y015050D02*
X007062Y015082D01*
X006998Y015082D01*
X006966Y015050D01*
X006966Y015018D01*
X007093Y014892D01*
X006966Y014892D01*
X006909Y014923D02*
X006877Y014892D01*
X006814Y014892D01*
X006782Y014923D01*
X006782Y015050D01*
X006814Y015082D01*
X006877Y015082D01*
X006909Y015050D01*
X006909Y015018D01*
X006877Y014987D01*
X006782Y014987D01*
X006783Y016252D02*
X006656Y016252D01*
X006720Y016252D02*
X006720Y016442D01*
X006783Y016378D01*
X006841Y016347D02*
X006872Y016315D01*
X006967Y016315D01*
X006967Y016252D02*
X006967Y016442D01*
X006872Y016442D01*
X006841Y016410D01*
X006841Y016347D01*
X007025Y016442D02*
X007152Y016442D01*
X007088Y016442D02*
X007088Y016252D01*
X007332Y016342D02*
X007459Y016342D01*
X007516Y016342D02*
X007643Y016342D01*
X007580Y016342D02*
X007580Y016532D01*
X007643Y016468D01*
X007701Y016437D02*
X007732Y016405D01*
X007827Y016405D01*
X007827Y016342D02*
X007827Y016532D01*
X007732Y016532D01*
X007701Y016500D01*
X007701Y016437D01*
X007885Y016532D02*
X008012Y016532D01*
X008052Y016567D02*
X008179Y016567D01*
X008084Y016662D01*
X008084Y016472D01*
X007948Y016532D02*
X007948Y016342D01*
X008236Y016472D02*
X008363Y016472D01*
X008300Y016472D02*
X008300Y016662D01*
X008363Y016598D01*
X008421Y016567D02*
X008452Y016535D01*
X008547Y016535D01*
X008547Y016472D02*
X008547Y016662D01*
X008452Y016662D01*
X008421Y016630D01*
X008421Y016567D01*
X008605Y016662D02*
X008732Y016662D01*
X008668Y016662D02*
X008668Y016472D01*
X007459Y016468D02*
X007396Y016532D01*
X007396Y016342D01*
X006599Y016283D02*
X006472Y016410D01*
X006472Y016283D01*
X006504Y016252D01*
X006567Y016252D01*
X006599Y016283D01*
X006599Y016410D01*
X006567Y016442D01*
X006504Y016442D01*
X006472Y016410D01*
X005172Y015072D02*
X005045Y015072D01*
X004987Y015072D02*
X004987Y014882D01*
X004987Y014945D02*
X004892Y014945D01*
X004861Y014977D01*
X004861Y015040D01*
X004892Y015072D01*
X004987Y015072D01*
X005108Y015072D02*
X005108Y014882D01*
X004803Y014913D02*
X004772Y014882D01*
X004708Y014882D01*
X004676Y014913D01*
X004676Y015040D01*
X004708Y015072D01*
X004772Y015072D01*
X004803Y015040D01*
X004803Y015008D01*
X004772Y014977D01*
X004676Y014977D01*
X006206Y011702D02*
X006206Y011670D01*
X006333Y011543D01*
X006333Y011512D01*
X006422Y011575D02*
X006391Y011607D01*
X006391Y011670D01*
X006422Y011702D01*
X006517Y011702D01*
X006517Y011512D01*
X006517Y011575D02*
X006422Y011575D01*
X006333Y011702D02*
X006206Y011702D01*
X006575Y011702D02*
X006702Y011702D01*
X006638Y011702D02*
X006638Y011512D01*
X007916Y011593D02*
X007948Y011562D01*
X008012Y011562D01*
X008043Y011593D01*
X008043Y011625D01*
X008012Y011657D01*
X007948Y011657D01*
X007916Y011625D01*
X007916Y011593D01*
X007948Y011657D02*
X007916Y011688D01*
X007916Y011720D01*
X007948Y011752D01*
X008012Y011752D01*
X008043Y011720D01*
X008043Y011688D01*
X008012Y011657D01*
X008101Y011657D02*
X008132Y011625D01*
X008227Y011625D01*
X008227Y011562D02*
X008227Y011752D01*
X008132Y011752D01*
X008101Y011720D01*
X008101Y011657D01*
X008285Y011752D02*
X008412Y011752D01*
X008348Y011752D02*
X008348Y011562D01*
D13*
X003479Y006430D02*
X003653Y006395D01*
X003825Y006351D01*
X003995Y006299D01*
X004163Y006239D01*
X004327Y006170D01*
X004487Y006094D01*
X004644Y006010D01*
X004796Y005919D01*
X004944Y005820D01*
X005087Y005714D01*
X005224Y005601D01*
X005356Y005482D01*
X005482Y005356D01*
X005601Y005224D01*
X005714Y005087D01*
X005820Y004944D01*
X005919Y004796D01*
X006010Y004644D01*
X006094Y004487D01*
X006170Y004327D01*
X006239Y004163D01*
X006299Y003995D01*
X006351Y003825D01*
X006395Y003653D01*
X006430Y003479D01*
X006430Y003480D02*
X006429Y003413D01*
X006432Y003345D01*
X006439Y003279D01*
X006449Y003212D01*
X006463Y003147D01*
X006481Y003082D01*
X006503Y003019D01*
X006528Y002956D01*
X006557Y002896D01*
X006589Y002837D01*
X006624Y002780D01*
X006662Y002725D01*
X006704Y002672D01*
X006749Y002622D01*
X006796Y002574D01*
X006846Y002529D01*
X006898Y002488D01*
X006953Y002449D01*
X007010Y002413D01*
X007069Y002381D01*
X007129Y002352D01*
X007191Y002326D01*
X007255Y002304D01*
X007319Y002286D01*
X007385Y002271D01*
X007451Y002261D01*
X007518Y002253D01*
X007585Y002250D01*
X007652Y002251D01*
X007719Y002255D01*
X007785Y002263D01*
X007851Y002275D01*
X007917Y002291D01*
X007981Y002311D01*
X008044Y002334D01*
X008106Y002360D01*
X008166Y002390D01*
X008224Y002424D01*
X008280Y002460D01*
X008334Y002500D01*
X008386Y002543D01*
X008435Y002589D01*
X008434Y002588D02*
X009242Y003396D01*
X011135Y005289D02*
X011441Y005595D01*
X011238Y009178D01*
X009178Y011238D01*
X005595Y011441D01*
X005289Y011135D01*
X003396Y009242D02*
X002588Y008434D01*
X002589Y008434D02*
X002541Y008386D01*
X002497Y008334D01*
X002456Y008281D01*
X002418Y008225D01*
X002383Y008166D01*
X002351Y008106D01*
X002324Y008045D01*
X002299Y007981D01*
X002279Y007917D01*
X002262Y007851D01*
X002249Y007784D01*
X002240Y007717D01*
X002235Y007650D01*
X002234Y007582D01*
X002237Y007514D01*
X002244Y007447D01*
X002254Y007380D01*
X002269Y007314D01*
X002287Y007248D01*
X002309Y007184D01*
X002335Y007122D01*
X002364Y007061D01*
X002397Y007001D01*
X002433Y006944D01*
X002472Y006889D01*
X002515Y006836D01*
X002561Y006786D01*
X002609Y006739D01*
X002660Y006694D01*
X002714Y006652D01*
X002769Y006614D01*
X002827Y006579D01*
X002887Y006547D01*
X002949Y006519D01*
X003012Y006495D01*
X003077Y006474D01*
X003142Y006457D01*
X003209Y006444D01*
X003276Y006435D01*
X003344Y006429D01*
X003411Y006428D01*
X003479Y006431D01*
M02*
