G75*
G70*
%OFA0B0*%
%FSLAX24Y24*%
%IPPOS*%
%LPD*%
%AMOC8*
5,1,8,0,0,1.08239X$1,22.5*
%
%ADD10C,0.0000*%
%ADD11C,0.0020*%
%ADD12C,0.0010*%
%ADD13R,0.0120X0.0390*%
%ADD14C,0.0115*%
%ADD15OC8,0.0515*%
%ADD16R,0.0433X0.0394*%
%ADD17R,0.0591X0.0787*%
%ADD18C,0.0740*%
%ADD19R,0.0413X0.0425*%
%ADD20R,0.0394X0.0394*%
%ADD21C,0.0560*%
%ADD22R,0.0906X0.0630*%
%ADD23R,0.0630X0.0906*%
%ADD24R,0.0394X0.0433*%
%ADD25C,0.0118*%
%ADD26C,0.0400*%
%ADD27C,0.0400*%
%ADD28R,0.0110X0.0200*%
%ADD29R,0.0790X0.0350*%
%ADD30C,0.0280*%
%ADD31C,0.0060*%
%ADD32R,0.0472X0.0472*%
%ADD33OC8,0.0357*%
%ADD34C,0.0080*%
%ADD35C,0.0120*%
%ADD36C,0.0100*%
%ADD37C,0.0180*%
%ADD38C,0.0160*%
%ADD39OC8,0.0396*%
%ADD40C,0.0050*%
D10*
X003477Y004197D02*
X003479Y004228D01*
X003485Y004258D01*
X003495Y004287D01*
X003508Y004315D01*
X003525Y004341D01*
X003545Y004364D01*
X003567Y004385D01*
X003593Y004402D01*
X003620Y004416D01*
X003649Y004427D01*
X003679Y004434D01*
X003709Y004437D01*
X003740Y004436D01*
X003770Y004431D01*
X003800Y004422D01*
X003828Y004410D01*
X003854Y004394D01*
X003878Y004375D01*
X003900Y004353D01*
X003918Y004328D01*
X003933Y004301D01*
X003945Y004273D01*
X003953Y004243D01*
X003957Y004212D01*
X003957Y004182D01*
X003953Y004151D01*
X003945Y004121D01*
X003933Y004093D01*
X003918Y004066D01*
X003900Y004041D01*
X003878Y004019D01*
X003854Y004000D01*
X003828Y003984D01*
X003800Y003972D01*
X003770Y003963D01*
X003740Y003958D01*
X003709Y003957D01*
X003679Y003960D01*
X003649Y003967D01*
X003620Y003978D01*
X003593Y003992D01*
X003567Y004009D01*
X003545Y004030D01*
X003525Y004053D01*
X003508Y004079D01*
X003495Y004107D01*
X003485Y004136D01*
X003479Y004166D01*
X003477Y004197D01*
X001877Y006653D02*
X001877Y019215D01*
X001879Y019255D01*
X001884Y019295D01*
X001893Y019334D01*
X001905Y019372D01*
X001920Y019409D01*
X001938Y019444D01*
X001960Y019478D01*
X001984Y019509D01*
X002011Y019539D01*
X002041Y019566D01*
X002072Y019590D01*
X002106Y019612D01*
X002141Y019630D01*
X002178Y019645D01*
X002216Y019657D01*
X002255Y019666D01*
X002295Y019671D01*
X002335Y019673D01*
X011624Y019673D01*
X013967Y017547D02*
X013969Y017578D01*
X013975Y017608D01*
X013985Y017637D01*
X013998Y017665D01*
X014015Y017691D01*
X014035Y017714D01*
X014057Y017735D01*
X014083Y017752D01*
X014110Y017766D01*
X014139Y017777D01*
X014169Y017784D01*
X014199Y017787D01*
X014230Y017786D01*
X014260Y017781D01*
X014290Y017772D01*
X014318Y017760D01*
X014344Y017744D01*
X014368Y017725D01*
X014390Y017703D01*
X014408Y017678D01*
X014423Y017651D01*
X014435Y017623D01*
X014443Y017593D01*
X014447Y017562D01*
X014447Y017532D01*
X014443Y017501D01*
X014435Y017471D01*
X014423Y017443D01*
X014408Y017416D01*
X014390Y017391D01*
X014368Y017369D01*
X014344Y017350D01*
X014318Y017334D01*
X014290Y017322D01*
X014260Y017313D01*
X014230Y017308D01*
X014199Y017307D01*
X014169Y017310D01*
X014139Y017317D01*
X014110Y017328D01*
X014083Y017342D01*
X014057Y017359D01*
X014035Y017380D01*
X014015Y017403D01*
X013998Y017429D01*
X013985Y017457D01*
X013975Y017486D01*
X013969Y017516D01*
X013967Y017547D01*
X015446Y015852D02*
X015446Y002397D01*
X015445Y002397D02*
X015446Y002356D01*
X015443Y002315D01*
X015437Y002274D01*
X015427Y002234D01*
X015414Y002196D01*
X015397Y002158D01*
X015377Y002122D01*
X015354Y002088D01*
X015329Y002056D01*
X015300Y002026D01*
X015269Y001999D01*
X015236Y001975D01*
X015201Y001954D01*
X015164Y001936D01*
X015126Y001921D01*
X015086Y001909D01*
X015046Y001901D01*
X015005Y001897D01*
X006663Y001897D01*
X006436Y001902D01*
X006209Y001917D01*
X005984Y001943D01*
X005760Y001980D01*
X005538Y002028D01*
X005318Y002086D01*
X005102Y002155D01*
X004889Y002233D01*
X004680Y002322D01*
X004475Y002421D01*
X004276Y002529D01*
X004081Y002646D01*
X003893Y002773D01*
X003711Y002908D01*
X003535Y003053D01*
X003367Y003205D01*
X003205Y003365D01*
X003052Y003532D01*
X002907Y003707D01*
X002770Y003888D01*
X002643Y004076D01*
X002524Y004270D01*
X002414Y004468D01*
X002314Y004672D01*
X002224Y004881D01*
X002144Y005093D01*
X002075Y005309D01*
X002015Y005529D01*
X001966Y005750D01*
X001928Y005974D01*
X001900Y006200D01*
X001883Y006426D01*
X001877Y006653D01*
X011624Y019674D02*
X011806Y019670D01*
X011987Y019657D01*
X012168Y019635D01*
X012347Y019605D01*
X012525Y019566D01*
X012701Y019519D01*
X012874Y019464D01*
X013044Y019400D01*
X013212Y019329D01*
X013375Y019249D01*
X013535Y019162D01*
X013690Y019067D01*
X013841Y018965D01*
X013987Y018856D01*
X014127Y018740D01*
X014261Y018618D01*
X014390Y018489D01*
X014512Y018355D01*
X014628Y018215D01*
X014737Y018069D01*
X014839Y017918D01*
X014934Y017763D01*
X015021Y017603D01*
X015101Y017440D01*
X015172Y017272D01*
X015236Y017102D01*
X015291Y016929D01*
X015338Y016753D01*
X015377Y016575D01*
X015407Y016396D01*
X015429Y016215D01*
X015442Y016034D01*
X015446Y015852D01*
D11*
X014907Y014093D02*
X014726Y014093D01*
X014786Y014093D02*
X014786Y014002D01*
X014816Y013972D01*
X014877Y013972D01*
X014907Y014002D01*
X014907Y014093D01*
X014877Y013908D02*
X014816Y013908D01*
X014786Y013878D01*
X014786Y013848D01*
X014816Y013788D01*
X014726Y013788D01*
X014726Y013908D01*
X014877Y013908D02*
X014907Y013878D01*
X014907Y013818D01*
X014877Y013788D01*
X014877Y013726D02*
X014907Y013726D01*
X014907Y013696D01*
X014877Y013696D01*
X014877Y013726D01*
X014907Y013632D02*
X014907Y013512D01*
X014786Y013632D01*
X014756Y013632D01*
X014726Y013602D01*
X014726Y013542D01*
X014756Y013512D01*
X014786Y013264D02*
X014907Y013204D01*
X014786Y013144D01*
X014816Y013080D02*
X014847Y013080D01*
X014847Y012960D01*
X014877Y012960D02*
X014816Y012960D01*
X014786Y012990D01*
X014786Y013050D01*
X014816Y013080D01*
X014907Y013050D02*
X014907Y012990D01*
X014877Y012960D01*
X014907Y012895D02*
X014847Y012835D01*
X014847Y012865D02*
X014847Y012775D01*
X014907Y012775D02*
X014726Y012775D01*
X014726Y012865D01*
X014756Y012895D01*
X014816Y012895D01*
X014847Y012865D01*
X012272Y002557D02*
X012272Y002377D01*
X012212Y002377D02*
X012332Y002377D01*
X012212Y002497D02*
X012272Y002557D01*
X012007Y002377D02*
X011887Y002377D01*
X011887Y002557D01*
D12*
X009377Y012342D02*
X009377Y012352D01*
X008512Y012512D02*
X008509Y012514D01*
X008509Y012654D01*
D13*
X008509Y012654D03*
X008253Y012654D03*
X007998Y012654D03*
X007742Y012654D03*
X007486Y012654D03*
X007230Y012654D03*
X006974Y012654D03*
X006718Y012654D03*
X006462Y012654D03*
X006206Y012654D03*
X005950Y012654D03*
X005694Y012654D03*
X005694Y015385D03*
X005950Y015385D03*
X006206Y015385D03*
X006462Y015385D03*
X006718Y015385D03*
X006974Y015385D03*
X007230Y015385D03*
X007486Y015385D03*
X007742Y015385D03*
X007998Y015385D03*
X008253Y015385D03*
X008509Y015385D03*
X008765Y015385D03*
X009021Y015385D03*
X009277Y015385D03*
X009277Y012654D03*
X009021Y012654D03*
X008765Y012654D03*
D14*
X012234Y016319D02*
X012176Y016377D01*
X012364Y016377D01*
X012499Y016242D01*
X012499Y016054D01*
X012364Y015919D01*
X012176Y015919D01*
X012041Y016054D01*
X012041Y016242D01*
X012176Y016377D01*
X012211Y016290D01*
X012329Y016290D01*
X012412Y016207D01*
X012412Y016089D01*
X012329Y016006D01*
X012211Y016006D01*
X012128Y016089D01*
X012128Y016207D01*
X012211Y016290D01*
X012246Y016204D01*
X012294Y016204D01*
X012326Y016172D01*
X012326Y016124D01*
X012294Y016092D01*
X012246Y016092D01*
X012214Y016124D01*
X012214Y016172D01*
X012246Y016204D01*
X012791Y016876D02*
X012733Y016934D01*
X012921Y016934D01*
X013056Y016799D01*
X013056Y016611D01*
X012921Y016476D01*
X012733Y016476D01*
X012598Y016611D01*
X012598Y016799D01*
X012733Y016934D01*
X012768Y016847D01*
X012886Y016847D01*
X012969Y016764D01*
X012969Y016646D01*
X012886Y016563D01*
X012768Y016563D01*
X012685Y016646D01*
X012685Y016764D01*
X012768Y016847D01*
X012803Y016761D01*
X012851Y016761D01*
X012883Y016729D01*
X012883Y016681D01*
X012851Y016649D01*
X012803Y016649D01*
X012771Y016681D01*
X012771Y016729D01*
X012803Y016761D01*
X012084Y017583D02*
X012026Y017641D01*
X012214Y017641D01*
X012349Y017506D01*
X012349Y017318D01*
X012214Y017183D01*
X012026Y017183D01*
X011891Y017318D01*
X011891Y017506D01*
X012026Y017641D01*
X012061Y017554D01*
X012179Y017554D01*
X012262Y017471D01*
X012262Y017353D01*
X012179Y017270D01*
X012061Y017270D01*
X011978Y017353D01*
X011978Y017471D01*
X012061Y017554D01*
X012096Y017468D01*
X012144Y017468D01*
X012176Y017436D01*
X012176Y017388D01*
X012144Y017356D01*
X012096Y017356D01*
X012064Y017388D01*
X012064Y017436D01*
X012096Y017468D01*
X011527Y017026D02*
X011469Y017084D01*
X011657Y017084D01*
X011792Y016949D01*
X011792Y016761D01*
X011657Y016626D01*
X011469Y016626D01*
X011334Y016761D01*
X011334Y016949D01*
X011469Y017084D01*
X011504Y016997D01*
X011622Y016997D01*
X011705Y016914D01*
X011705Y016796D01*
X011622Y016713D01*
X011504Y016713D01*
X011421Y016796D01*
X011421Y016914D01*
X011504Y016997D01*
X011539Y016911D01*
X011587Y016911D01*
X011619Y016879D01*
X011619Y016831D01*
X011587Y016799D01*
X011539Y016799D01*
X011507Y016831D01*
X011507Y016879D01*
X011539Y016911D01*
X012930Y015623D02*
X012872Y015681D01*
X013060Y015681D01*
X013195Y015546D01*
X013195Y015358D01*
X013060Y015223D01*
X012872Y015223D01*
X012737Y015358D01*
X012737Y015546D01*
X012872Y015681D01*
X012907Y015594D01*
X013025Y015594D01*
X013108Y015511D01*
X013108Y015393D01*
X013025Y015310D01*
X012907Y015310D01*
X012824Y015393D01*
X012824Y015511D01*
X012907Y015594D01*
X012942Y015508D01*
X012990Y015508D01*
X013022Y015476D01*
X013022Y015428D01*
X012990Y015396D01*
X012942Y015396D01*
X012910Y015428D01*
X012910Y015476D01*
X012942Y015508D01*
X013487Y016180D02*
X013429Y016238D01*
X013617Y016238D01*
X013752Y016103D01*
X013752Y015915D01*
X013617Y015780D01*
X013429Y015780D01*
X013294Y015915D01*
X013294Y016103D01*
X013429Y016238D01*
X013464Y016151D01*
X013582Y016151D01*
X013665Y016068D01*
X013665Y015950D01*
X013582Y015867D01*
X013464Y015867D01*
X013381Y015950D01*
X013381Y016068D01*
X013464Y016151D01*
X013499Y016065D01*
X013547Y016065D01*
X013579Y016033D01*
X013579Y015985D01*
X013547Y015953D01*
X013499Y015953D01*
X013467Y015985D01*
X013467Y016033D01*
X013499Y016065D01*
X014194Y015472D02*
X014136Y015530D01*
X014324Y015530D01*
X014459Y015395D01*
X014459Y015207D01*
X014324Y015072D01*
X014136Y015072D01*
X014001Y015207D01*
X014001Y015395D01*
X014136Y015530D01*
X014171Y015443D01*
X014289Y015443D01*
X014372Y015360D01*
X014372Y015242D01*
X014289Y015159D01*
X014171Y015159D01*
X014088Y015242D01*
X014088Y015360D01*
X014171Y015443D01*
X014206Y015357D01*
X014254Y015357D01*
X014286Y015325D01*
X014286Y015277D01*
X014254Y015245D01*
X014206Y015245D01*
X014174Y015277D01*
X014174Y015325D01*
X014206Y015357D01*
X013637Y014916D02*
X013579Y014974D01*
X013767Y014974D01*
X013902Y014839D01*
X013902Y014651D01*
X013767Y014516D01*
X013579Y014516D01*
X013444Y014651D01*
X013444Y014839D01*
X013579Y014974D01*
X013614Y014887D01*
X013732Y014887D01*
X013815Y014804D01*
X013815Y014686D01*
X013732Y014603D01*
X013614Y014603D01*
X013531Y014686D01*
X013531Y014804D01*
X013614Y014887D01*
X013649Y014801D01*
X013697Y014801D01*
X013729Y014769D01*
X013729Y014721D01*
X013697Y014689D01*
X013649Y014689D01*
X013617Y014721D01*
X013617Y014769D01*
X013649Y014801D01*
D15*
X013429Y008912D03*
X013429Y007912D03*
X013429Y006912D03*
X013429Y005912D03*
X013429Y004912D03*
X013429Y003912D03*
X013429Y002912D03*
X014429Y002912D03*
X014429Y003912D03*
X014429Y004912D03*
X014429Y005912D03*
X014429Y006912D03*
X014429Y007912D03*
X014429Y008912D03*
D16*
X012197Y004771D03*
X012197Y004102D03*
X008345Y010098D03*
X008345Y010767D03*
X004497Y008741D03*
X004497Y008072D03*
D17*
X007967Y004500D03*
X009148Y004500D03*
D18*
X002935Y013761D03*
X002935Y014761D03*
D19*
X007275Y007935D03*
X007964Y007935D03*
X008263Y005685D03*
X008952Y005685D03*
X012982Y010897D03*
X013671Y010897D03*
D20*
X011741Y011084D03*
X011741Y010297D03*
D21*
X010101Y017815D03*
X010101Y018603D03*
X009314Y018603D03*
X009314Y017815D03*
X008526Y017815D03*
X008526Y018603D03*
X007739Y018603D03*
X007739Y017815D03*
X006952Y017815D03*
X006952Y018603D03*
X006164Y018603D03*
X006164Y017815D03*
X005377Y017815D03*
X005377Y018603D03*
X004589Y018603D03*
X004589Y017815D03*
X003802Y017815D03*
X003802Y018603D03*
X003015Y018603D03*
X003015Y017815D03*
D22*
X007336Y003057D03*
X009817Y003057D03*
D23*
X003297Y006286D03*
X003297Y008767D03*
D24*
X003431Y015967D03*
X002762Y015967D03*
X011722Y009337D03*
X012391Y009337D03*
X010881Y004487D03*
X010212Y004487D03*
D25*
X003324Y016559D02*
X003324Y016835D01*
X003600Y016835D01*
X003600Y016559D01*
X003324Y016559D01*
X003324Y016676D02*
X003600Y016676D01*
X003600Y016793D02*
X003324Y016793D01*
X002633Y016835D02*
X002633Y016559D01*
X002633Y016835D02*
X002909Y016835D01*
X002909Y016559D01*
X002633Y016559D01*
X002633Y016676D02*
X002909Y016676D01*
X002909Y016793D02*
X002633Y016793D01*
D26*
X004187Y016597D03*
X004447Y017107D03*
X005107Y017117D03*
X005777Y016997D03*
X006587Y016817D03*
X007287Y017097D03*
X008117Y016757D03*
X008757Y017147D03*
X009337Y017137D03*
X009627Y016477D03*
X009507Y016007D03*
X010407Y015887D03*
X011687Y018737D03*
X009787Y012837D03*
X009227Y012057D03*
X008147Y012027D03*
X006487Y012097D03*
X005767Y011907D03*
X005277Y012237D03*
X004457Y012677D03*
X004757Y013097D03*
X009547Y005677D03*
X014287Y009907D03*
X014337Y011667D03*
X010897Y012267D03*
D27*
X010157Y015337D02*
X010157Y015337D01*
X010157Y015337D01*
X010157Y015337D01*
X010157Y015337D01*
X010157Y015337D01*
X010157Y015337D01*
X010157Y015337D01*
X010157Y015337D01*
X010157Y015337D01*
D28*
X012747Y012397D03*
X012937Y012397D03*
X013137Y012397D03*
X013337Y012397D03*
X013537Y012397D03*
X013727Y012397D03*
X013727Y011657D03*
X013537Y011657D03*
X013337Y011657D03*
X013137Y011657D03*
X012937Y011657D03*
X012747Y011657D03*
D29*
X013237Y012027D03*
D30*
X013237Y012027D03*
X013517Y012027D03*
X012957Y012027D03*
D31*
X012847Y012077D02*
X012567Y012077D01*
X012567Y012177D01*
X012847Y012177D01*
X012847Y012207D01*
X013627Y012207D01*
X013627Y012177D01*
X013907Y012177D01*
X013907Y012077D01*
X013627Y012077D01*
X013627Y011977D01*
X013907Y011977D01*
X013907Y011877D01*
X013627Y011877D01*
X013627Y011847D01*
X012847Y011847D01*
X012847Y011877D01*
X012567Y011877D01*
X012567Y011977D01*
X012847Y011977D01*
X012847Y012077D01*
X015457Y015852D02*
X015453Y016034D01*
X015440Y016215D01*
X015418Y016395D01*
X015388Y016574D01*
X015349Y016751D01*
X015302Y016927D01*
X015247Y017100D01*
X015184Y017270D01*
X015112Y017437D01*
X015033Y017600D01*
X014946Y017760D01*
X014851Y017915D01*
X014750Y018065D01*
X014641Y018210D01*
X014525Y018350D01*
X014403Y018485D01*
X014275Y018613D01*
X014140Y018735D01*
X014000Y018851D01*
X013855Y018960D01*
X013705Y019061D01*
X013549Y019156D01*
X013390Y019243D01*
X013227Y019322D01*
X013060Y019394D01*
X012890Y019457D01*
X012717Y019512D01*
X012541Y019559D01*
X012364Y019598D01*
X012185Y019628D01*
X012005Y019650D01*
X011824Y019663D01*
X011642Y019667D01*
X002315Y019667D01*
X002274Y019665D01*
X002234Y019660D01*
X002195Y019650D01*
X002156Y019637D01*
X002119Y019621D01*
X002084Y019601D01*
X002050Y019578D01*
X002019Y019552D01*
X001991Y019524D01*
X001965Y019493D01*
X001942Y019459D01*
X001922Y019424D01*
X001906Y019387D01*
X001893Y019348D01*
X001883Y019309D01*
X001878Y019269D01*
X001876Y019228D01*
X001877Y019228D02*
X001877Y006669D01*
X001882Y006442D01*
X001899Y006215D01*
X001926Y005990D01*
X001963Y005766D01*
X002012Y005544D01*
X002070Y005325D01*
X002139Y005108D01*
X002219Y004895D01*
X002308Y004687D01*
X002407Y004482D01*
X002516Y004283D01*
X002635Y004089D01*
X002762Y003901D01*
X002898Y003719D01*
X003043Y003544D01*
X003195Y003376D01*
X003356Y003215D01*
X003524Y003063D01*
X003699Y002918D01*
X003881Y002782D01*
X004069Y002655D01*
X004263Y002536D01*
X004462Y002427D01*
X004667Y002328D01*
X004875Y002239D01*
X005088Y002159D01*
X005305Y002090D01*
X005524Y002032D01*
X005746Y001983D01*
X005970Y001946D01*
X006195Y001919D01*
X006422Y001902D01*
X006649Y001897D01*
X014965Y001897D01*
X015008Y001899D01*
X015050Y001904D01*
X015092Y001914D01*
X015133Y001927D01*
X015173Y001943D01*
X015211Y001963D01*
X015247Y001986D01*
X015281Y002012D01*
X015313Y002041D01*
X015342Y002073D01*
X015368Y002107D01*
X015391Y002143D01*
X015411Y002181D01*
X015427Y002221D01*
X015440Y002262D01*
X015450Y002304D01*
X015455Y002346D01*
X015457Y002389D01*
X015457Y015852D01*
D32*
X007367Y006357D03*
D33*
X007477Y007027D03*
X006177Y007277D03*
X007507Y009787D03*
X007577Y010867D03*
X007577Y012087D03*
X007007Y012097D03*
X005777Y011457D03*
X004767Y012217D03*
X004837Y013797D03*
X004277Y014437D03*
X003797Y015317D03*
X005827Y014787D03*
X007237Y014727D03*
X007557Y014167D03*
X008257Y014817D03*
X008997Y014677D03*
X009397Y014037D03*
X009797Y013397D03*
X010227Y014727D03*
X010827Y016317D03*
X009817Y011357D03*
X009107Y011197D03*
X010207Y010677D03*
X010977Y010787D03*
X012987Y010397D03*
X011707Y007387D03*
X011697Y006417D03*
X011347Y005687D03*
X010147Y007377D03*
X003657Y010277D03*
X003297Y005217D03*
D34*
X003322Y008741D02*
X004497Y008741D01*
X003322Y008741D02*
X003297Y008767D01*
X003297Y008827D01*
X002807Y008827D01*
X002807Y012267D01*
X002787Y012337D01*
X004027Y013447D02*
X004387Y013087D01*
X004387Y012747D01*
X004457Y012677D01*
X005672Y012677D01*
X005694Y012654D01*
X005950Y012654D02*
X005950Y012350D01*
X005817Y012237D01*
X005277Y012237D01*
X004787Y012237D01*
X004767Y012217D01*
X004387Y012704D02*
X004387Y012747D01*
X004757Y013077D02*
X004757Y013097D01*
X004757Y013077D02*
X006387Y013077D01*
X006462Y013001D01*
X006462Y012654D01*
X006462Y012811D01*
X006718Y012654D02*
X006718Y012328D01*
X006487Y012097D01*
X006487Y011357D01*
X007757Y010087D01*
X008334Y010087D01*
X008345Y010098D01*
X008376Y010067D01*
X009057Y010067D01*
X009817Y010837D01*
X009817Y011357D01*
X009337Y011642D02*
X009827Y012132D01*
X010422Y012132D01*
X009807Y012837D02*
X009797Y012837D01*
X009787Y012837D01*
X009797Y012837D02*
X009557Y012597D01*
X009335Y012597D01*
X009277Y012654D01*
X009047Y012680D02*
X009047Y012937D01*
X009397Y013287D01*
X009397Y014037D01*
X009177Y013767D02*
X009177Y013337D01*
X008787Y012947D01*
X008787Y012676D01*
X008765Y012654D01*
X009021Y012654D02*
X009021Y012262D01*
X009227Y012057D01*
X009337Y011642D02*
X008837Y011642D01*
X008512Y011967D01*
X008512Y012202D01*
X008257Y012137D02*
X008147Y012027D01*
X008147Y012297D01*
X008247Y012397D01*
X008247Y012648D01*
X008253Y012654D01*
X008257Y012658D01*
X008257Y013017D01*
X007998Y012956D02*
X007998Y012654D01*
X008247Y012661D02*
X008253Y012654D01*
X007998Y012956D02*
X007557Y013397D01*
X007557Y014167D01*
X007237Y014727D02*
X007237Y013397D01*
X007742Y012892D01*
X007742Y012654D01*
X007486Y012654D02*
X007486Y012827D01*
X007237Y013077D01*
X007077Y013077D01*
X006757Y013397D01*
X005237Y013397D01*
X004837Y013797D01*
X004277Y013557D02*
X004277Y014437D01*
X004027Y014107D02*
X004027Y013447D01*
X004277Y013557D02*
X004757Y013077D01*
X004027Y014107D02*
X003917Y014217D01*
X003917Y014887D01*
X003797Y015007D01*
X003797Y015317D01*
X004187Y016597D02*
X004193Y016603D01*
X004193Y016612D01*
X005408Y015385D01*
X005694Y015385D01*
X005950Y015385D02*
X005950Y015643D01*
X004437Y017157D01*
X004437Y017117D01*
X004447Y017107D01*
X004437Y017157D02*
X004197Y017397D01*
X004197Y018210D01*
X004589Y018603D01*
X004987Y018212D02*
X004987Y017247D01*
X005107Y017127D01*
X005107Y017117D01*
X005107Y017127D02*
X006462Y015771D01*
X006462Y015385D01*
X006718Y015385D02*
X006718Y016075D01*
X005777Y016997D01*
X005767Y018215D01*
X006164Y018603D01*
X006557Y018228D02*
X006557Y016797D01*
X006587Y016817D01*
X006557Y016797D02*
X006597Y016597D01*
X006974Y016219D01*
X006974Y015385D01*
X007230Y015385D02*
X007230Y016350D01*
X007317Y016437D01*
X007347Y017107D01*
X007297Y017107D01*
X007287Y017097D01*
X007347Y017107D02*
X007347Y018180D01*
X007739Y018603D01*
X008147Y018263D02*
X008137Y018243D01*
X008117Y016757D01*
X007486Y016126D01*
X007486Y015385D01*
X007742Y015385D02*
X007742Y015902D01*
X008917Y017077D01*
X008927Y017157D01*
X008767Y017157D01*
X008757Y017147D01*
X008927Y017157D02*
X008927Y018215D01*
X009314Y018603D01*
X009717Y018218D02*
X009717Y017477D01*
X009352Y017112D01*
X009352Y017122D01*
X009337Y017137D01*
X009352Y017112D02*
X007998Y015758D01*
X007998Y015385D01*
X008253Y015385D02*
X008263Y015593D01*
X010101Y017451D01*
X010101Y017815D01*
X010765Y017815D01*
X011687Y018737D01*
X011797Y017957D02*
X010527Y016687D01*
X010337Y016687D01*
X009657Y016007D01*
X009507Y016007D01*
X009197Y016007D01*
X008767Y015577D01*
X008767Y015386D01*
X008765Y015385D01*
X009021Y015385D02*
X009021Y015112D01*
X009077Y015057D01*
X009647Y015057D01*
X009917Y015327D01*
X010147Y015327D01*
X010157Y015337D01*
X011817Y015337D01*
X012407Y014747D01*
X013671Y014747D01*
X013673Y014745D01*
X012961Y015447D02*
X012966Y015452D01*
X012961Y015447D02*
X011997Y015447D01*
X011557Y015887D01*
X010407Y015887D01*
X010077Y015887D01*
X009575Y015385D01*
X009277Y015385D01*
X008997Y014677D02*
X008997Y013947D01*
X009177Y013767D01*
X009797Y013397D02*
X009797Y012837D01*
X009047Y012680D02*
X009021Y012654D01*
X007577Y012087D02*
X007507Y012087D01*
X007230Y012363D01*
X007230Y012654D01*
X006974Y012654D02*
X006967Y012647D01*
X006967Y012137D01*
X007007Y012097D01*
X006206Y012316D02*
X005797Y011907D01*
X005767Y011907D01*
X005777Y011897D01*
X005777Y011457D01*
X006206Y012316D02*
X006206Y012654D01*
X005827Y014787D02*
X006206Y015166D01*
X006206Y015385D01*
X006197Y015375D01*
X004193Y016612D02*
X003407Y017407D01*
X003407Y016752D01*
X003462Y016697D01*
X003407Y017407D02*
X003407Y018207D01*
X003802Y018603D01*
X004987Y018212D02*
X005377Y018603D01*
X006557Y018228D02*
X006952Y018603D01*
X008147Y018263D02*
X008526Y018603D01*
X009717Y018218D02*
X010101Y018603D01*
X010098Y017815D02*
X010101Y017815D01*
X009627Y016477D02*
X009427Y016477D01*
X008509Y015559D01*
X008509Y015385D01*
X008509Y015559D01*
X008509Y015385D01*
X008509Y015559D01*
X011797Y017957D02*
X012437Y017957D01*
X013747Y016647D01*
X013747Y016232D01*
X013523Y016009D01*
X013537Y012697D02*
X013332Y012697D01*
X013332Y012482D01*
X013337Y012397D02*
X013537Y012397D01*
X013537Y012462D02*
X013537Y012697D01*
X013332Y012697D02*
X013317Y012697D01*
X013132Y012697D01*
X013132Y012467D01*
X013137Y012397D02*
X012937Y012397D01*
X012747Y012397D01*
X012727Y012382D02*
X012407Y012382D01*
X012272Y012247D01*
X012272Y011837D01*
X012462Y011647D01*
X012407Y011647D01*
X012232Y011822D01*
X012232Y012282D01*
X012347Y012397D01*
X013137Y012397D01*
X013337Y012397D01*
X013132Y012697D02*
X012937Y012697D01*
X012937Y012452D01*
X012747Y012482D02*
X012747Y012697D01*
X012937Y012697D01*
X013727Y012397D02*
X014317Y012397D01*
X014697Y012017D01*
X014697Y010697D01*
X014287Y010287D01*
X014287Y009907D01*
X014017Y009637D01*
X013047Y009637D01*
X012747Y009337D01*
X012391Y009337D01*
X011741Y009385D02*
X011722Y009337D01*
X011700Y010257D02*
X011741Y010297D01*
X011147Y010787D02*
X010977Y010787D01*
X011741Y011084D02*
X011748Y011077D01*
X012537Y011077D01*
X012937Y011477D01*
X012937Y011657D01*
X012747Y011657D02*
X012452Y011657D01*
X012462Y011647D02*
X012737Y011647D01*
X012747Y011657D01*
X013137Y011417D02*
X012987Y011267D01*
X012987Y010901D01*
X012987Y010397D01*
X012982Y010897D02*
X012987Y010901D01*
X013137Y011417D02*
X013137Y011657D01*
X013727Y011657D02*
X014337Y011667D01*
X013707Y010932D02*
X013671Y010897D01*
X014287Y009907D02*
X014277Y009897D01*
X014429Y008912D02*
X014489Y008832D01*
X011707Y007387D02*
X010147Y007387D01*
X010147Y007377D01*
X009547Y005677D02*
X008961Y005677D01*
X008952Y005685D01*
X008961Y005677D02*
X008959Y005676D01*
X008958Y005675D01*
X008957Y005673D01*
X009157Y004509D02*
X009148Y004500D01*
X010212Y004487D02*
X010212Y003452D01*
X009817Y003057D01*
X009837Y003037D01*
X011698Y003037D01*
X012193Y003531D01*
X012193Y004002D01*
X012197Y004102D01*
X012182Y004117D01*
X011747Y004117D01*
X011707Y004157D01*
X011707Y004917D01*
X011347Y005277D01*
X011347Y005687D01*
X011697Y005271D02*
X011697Y006417D01*
X011697Y005271D02*
X012197Y004771D01*
X012197Y004735D01*
X012197Y004102D02*
X012197Y003557D01*
X012193Y003531D02*
X012812Y002912D01*
X013429Y002912D01*
X013957Y003440D01*
X013957Y004440D01*
X014429Y004912D01*
X007967Y004501D02*
X007967Y004500D01*
X007277Y007934D02*
X007275Y007935D01*
X002762Y015967D02*
X002771Y015976D01*
X002771Y016697D01*
D35*
X003073Y003853D02*
X003467Y003853D01*
X003479Y003840D02*
X003633Y003777D01*
X003800Y003777D01*
X003954Y003840D01*
X004073Y003959D01*
X004137Y004113D01*
X004137Y004280D01*
X004073Y004434D01*
X003954Y004553D01*
X003800Y004617D01*
X003633Y004617D01*
X003479Y004553D01*
X003360Y004434D01*
X003297Y004280D01*
X003297Y004113D01*
X003360Y003959D01*
X003479Y003840D01*
X003355Y003971D02*
X002987Y003971D01*
X002901Y004090D02*
X003306Y004090D01*
X003297Y004208D02*
X002815Y004208D01*
X002759Y004285D02*
X002434Y004923D01*
X002213Y005604D01*
X002101Y006311D01*
X002087Y006669D01*
X002087Y019228D01*
X002091Y019273D01*
X002125Y019355D01*
X002188Y019418D01*
X002271Y019452D01*
X002315Y019457D01*
X011642Y019457D01*
X011956Y019443D01*
X012575Y019334D01*
X012575Y019334D01*
X013165Y019119D01*
X013709Y018805D01*
X014191Y018401D01*
X014595Y017919D01*
X014909Y017375D01*
X015124Y016785D01*
X015233Y016166D01*
X015247Y015852D01*
X015247Y002389D01*
X015241Y002334D01*
X015199Y002232D01*
X015121Y002154D01*
X015020Y002112D01*
X014965Y002107D01*
X012911Y002107D01*
X012967Y002162D01*
X012967Y002692D01*
X013030Y002692D01*
X013248Y002475D01*
X013610Y002475D01*
X013867Y002731D01*
X013867Y003039D01*
X014048Y003220D01*
X014177Y003349D01*
X014177Y003546D01*
X014189Y003534D01*
X014189Y003291D01*
X013992Y003094D01*
X013992Y002731D01*
X014248Y002475D01*
X014610Y002475D01*
X014867Y002731D01*
X014867Y003094D01*
X014669Y003291D01*
X014669Y003534D01*
X014867Y003731D01*
X014867Y004010D01*
X015085Y004228D01*
X015152Y004296D01*
X015189Y004384D01*
X015189Y008420D01*
X015152Y008509D01*
X014867Y008794D01*
X014867Y009094D01*
X014610Y009350D01*
X014248Y009350D01*
X013992Y009094D01*
X013992Y008731D01*
X014248Y008475D01*
X014507Y008475D01*
X014709Y008273D01*
X014709Y008251D01*
X014610Y008350D01*
X014248Y008350D01*
X013992Y008094D01*
X013992Y007731D01*
X014248Y007475D01*
X014610Y007475D01*
X014709Y007573D01*
X014709Y007251D01*
X014610Y007350D01*
X014248Y007350D01*
X013992Y007094D01*
X013992Y006731D01*
X014248Y006475D01*
X014610Y006475D01*
X014709Y006573D01*
X014709Y006223D01*
X014602Y006330D01*
X014448Y006330D01*
X014448Y005931D01*
X014410Y005931D01*
X014410Y005894D01*
X014012Y005894D01*
X014012Y005739D01*
X014256Y005495D01*
X014410Y005495D01*
X014410Y005894D01*
X014448Y005894D01*
X014448Y005495D01*
X014602Y005495D01*
X014709Y005601D01*
X014709Y005251D01*
X014610Y005350D01*
X014248Y005350D01*
X013992Y005094D01*
X013992Y004786D01*
X013737Y004531D01*
X013737Y004224D01*
X013610Y004350D01*
X013248Y004350D01*
X012992Y004094D01*
X012992Y003731D01*
X013248Y003475D01*
X013610Y003475D01*
X013737Y003601D01*
X013737Y003531D01*
X013556Y003350D01*
X013248Y003350D01*
X013030Y003132D01*
X012903Y003132D01*
X012417Y003619D01*
X012417Y003725D01*
X012488Y003725D01*
X012593Y003831D01*
X012593Y004373D01*
X012530Y004437D01*
X012593Y004500D01*
X012593Y005043D01*
X012488Y005148D01*
X012131Y005148D01*
X011917Y005362D01*
X011917Y006130D01*
X012055Y006268D01*
X012055Y006565D01*
X011845Y006775D01*
X011548Y006775D01*
X011338Y006565D01*
X011338Y006268D01*
X011477Y006130D01*
X011477Y006045D01*
X011198Y006045D01*
X010988Y005835D01*
X010988Y005538D01*
X011127Y005400D01*
X011127Y005185D01*
X011255Y005057D01*
X011487Y004825D01*
X011487Y004065D01*
X011655Y003897D01*
X011800Y003897D01*
X011800Y003831D01*
X011905Y003725D01*
X011973Y003725D01*
X011973Y003622D01*
X011607Y003257D01*
X010449Y003257D01*
X010449Y003446D01*
X010432Y003464D01*
X010432Y004090D01*
X010483Y004090D01*
X010561Y004167D01*
X010586Y004142D01*
X010623Y004121D01*
X010663Y004110D01*
X010843Y004110D01*
X010843Y004448D01*
X010920Y004448D01*
X010920Y004525D01*
X011238Y004525D01*
X011238Y004724D01*
X011227Y004765D01*
X011206Y004801D01*
X011176Y004831D01*
X011140Y004852D01*
X011099Y004863D01*
X010920Y004863D01*
X010920Y004525D01*
X010843Y004525D01*
X010843Y004863D01*
X010663Y004863D01*
X010623Y004852D01*
X010586Y004831D01*
X010561Y004806D01*
X010483Y004883D01*
X009941Y004883D01*
X009835Y004778D01*
X009835Y004195D01*
X009941Y004090D01*
X009992Y004090D01*
X009992Y003552D01*
X009289Y003552D01*
X009184Y003446D01*
X009184Y002667D01*
X009289Y002562D01*
X010344Y002562D01*
X010449Y002667D01*
X010449Y002817D01*
X011547Y002817D01*
X011532Y002801D01*
X011532Y002162D01*
X011587Y002107D01*
X006736Y002107D01*
X006649Y002107D01*
X006291Y002121D01*
X005584Y002233D01*
X004903Y002454D01*
X004265Y002779D01*
X003686Y003200D01*
X003180Y003706D01*
X002759Y004285D01*
X002738Y004327D02*
X003316Y004327D01*
X003371Y004445D02*
X002677Y004445D01*
X002617Y004564D02*
X003505Y004564D01*
X003445Y004858D02*
X003655Y005068D01*
X003655Y005365D01*
X003557Y005463D01*
X003557Y005654D01*
X003686Y005654D01*
X003792Y005759D01*
X003792Y006026D01*
X005176Y006026D01*
X005227Y006026D01*
X005227Y006026D01*
X005228Y006026D01*
X005275Y006046D01*
X005323Y006065D01*
X005323Y006066D01*
X005324Y006066D01*
X005360Y006102D01*
X006184Y006918D01*
X006325Y006918D01*
X006427Y007020D01*
X006427Y005929D01*
X006463Y005841D01*
X006531Y005773D01*
X006754Y005549D01*
X006822Y005482D01*
X006910Y005445D01*
X007876Y005445D01*
X007876Y005398D01*
X007917Y005357D01*
X007831Y005270D01*
X007763Y005203D01*
X007727Y005114D01*
X007727Y005074D01*
X007597Y005074D01*
X007492Y004969D01*
X007492Y004032D01*
X007597Y003927D01*
X008337Y003927D01*
X008442Y004032D01*
X008442Y004969D01*
X008337Y005074D01*
X008314Y005074D01*
X008466Y005227D01*
X008494Y005293D01*
X008544Y005293D01*
X008607Y005356D01*
X008671Y005293D01*
X008717Y005293D01*
X008717Y005119D01*
X008748Y005044D01*
X008673Y004969D01*
X008673Y004032D01*
X008778Y003927D01*
X008897Y003927D01*
X008877Y003907D01*
X007899Y003907D01*
X007810Y003870D01*
X007743Y003803D01*
X007492Y003552D01*
X006809Y003552D01*
X006704Y003446D01*
X006704Y002667D01*
X006809Y002562D01*
X007864Y002562D01*
X007969Y002667D01*
X007969Y003350D01*
X008046Y003427D01*
X009024Y003427D01*
X009113Y003463D01*
X009284Y003635D01*
X009351Y003702D01*
X009388Y003790D01*
X009388Y003927D01*
X009518Y003927D01*
X009623Y004032D01*
X009623Y004969D01*
X009518Y005074D01*
X009372Y005074D01*
X009360Y005103D01*
X009293Y005170D01*
X009197Y005266D01*
X009197Y005293D01*
X009233Y005293D01*
X009313Y005373D01*
X009331Y005354D01*
X009471Y005297D01*
X009622Y005297D01*
X009762Y005354D01*
X009869Y005461D01*
X009927Y005601D01*
X009927Y005752D01*
X009869Y005892D01*
X009762Y005999D01*
X009622Y006057D01*
X009471Y006057D01*
X009331Y005999D01*
X009322Y005989D01*
X009233Y006078D01*
X009192Y006078D01*
X009192Y006339D01*
X009155Y006427D01*
X008103Y007480D01*
X008014Y007517D01*
X007679Y007517D01*
X007591Y007480D01*
X007545Y007434D01*
X007545Y007543D01*
X007556Y007543D01*
X007634Y007620D01*
X007659Y007595D01*
X007696Y007574D01*
X007736Y007563D01*
X007921Y007563D01*
X007921Y007892D01*
X008007Y007892D01*
X008007Y007563D01*
X008192Y007563D01*
X008232Y007574D01*
X008269Y007595D01*
X008299Y007625D01*
X008320Y007661D01*
X008331Y007702D01*
X008331Y007892D01*
X008007Y007892D01*
X008007Y007979D01*
X008331Y007979D01*
X008331Y008107D01*
X010414Y008107D01*
X010503Y008143D01*
X010733Y008373D01*
X010800Y008441D01*
X010837Y008529D01*
X010837Y010428D01*
X011017Y010428D01*
X011017Y010369D01*
X011053Y010281D01*
X011213Y010121D01*
X011281Y010053D01*
X011369Y010017D01*
X011373Y010017D01*
X011469Y009920D01*
X011501Y009920D01*
X011501Y009733D01*
X011451Y009733D01*
X011345Y009628D01*
X011345Y009045D01*
X011451Y008940D01*
X011993Y008940D01*
X012057Y009003D01*
X012120Y008940D01*
X012663Y008940D01*
X012768Y009045D01*
X012768Y009117D01*
X012838Y009117D01*
X013138Y009417D01*
X014108Y009417D01*
X014218Y009527D01*
X014362Y009527D01*
X014502Y009584D01*
X014609Y009691D01*
X014667Y009831D01*
X014667Y009982D01*
X014609Y010122D01*
X014521Y010210D01*
X014917Y010605D01*
X014917Y012108D01*
X014788Y012237D01*
X014408Y012617D01*
X013916Y012617D01*
X013856Y012677D01*
X013757Y012677D01*
X013757Y012788D01*
X013628Y012917D01*
X012655Y012917D01*
X012527Y012788D01*
X012527Y012617D01*
X012255Y012617D01*
X012140Y012502D01*
X012012Y012373D01*
X012012Y011887D01*
X010989Y011887D01*
X010901Y011850D01*
X010833Y011783D01*
X010393Y011343D01*
X010357Y011254D01*
X010357Y011033D01*
X010355Y011035D01*
X010058Y011035D01*
X010037Y011013D01*
X010037Y011070D01*
X010175Y011208D01*
X010175Y011505D01*
X009965Y011715D01*
X009668Y011715D01*
X009458Y011505D01*
X009458Y011352D01*
X009255Y011555D01*
X008958Y011555D01*
X008840Y011437D01*
X008726Y011437D01*
X008410Y011753D01*
X008469Y011811D01*
X008527Y011951D01*
X008527Y012102D01*
X008477Y012223D01*
X008477Y012228D01*
X008473Y012231D01*
X008469Y012242D01*
X008447Y012263D01*
X008455Y012271D01*
X008467Y012299D01*
X008509Y012299D01*
X008509Y012654D01*
X008509Y012654D01*
X008509Y012299D01*
X008551Y012299D01*
X008563Y012271D01*
X008631Y012203D01*
X008719Y012167D01*
X008805Y012167D01*
X008847Y012125D01*
X008847Y011981D01*
X008904Y011841D01*
X009011Y011734D01*
X009151Y011677D01*
X009302Y011677D01*
X009442Y011734D01*
X009549Y011841D01*
X009607Y011981D01*
X009607Y012132D01*
X009554Y012258D01*
X009562Y012265D01*
X009562Y012377D01*
X009648Y012377D01*
X009728Y012457D01*
X009862Y012457D01*
X010002Y012514D01*
X010109Y012621D01*
X010167Y012761D01*
X010167Y012912D01*
X010109Y013052D01*
X010034Y013127D01*
X010155Y013248D01*
X010155Y013545D01*
X009945Y013755D01*
X009648Y013755D01*
X009617Y013723D01*
X009617Y013750D01*
X009755Y013888D01*
X009755Y014185D01*
X009545Y014395D01*
X009248Y014395D01*
X009217Y014363D01*
X009217Y014390D01*
X009355Y014528D01*
X009355Y014825D01*
X009343Y014837D01*
X009738Y014837D01*
X009931Y015030D01*
X009971Y014996D01*
X010116Y014951D01*
X010266Y014965D01*
X010400Y015035D01*
X010468Y015117D01*
X011725Y015117D01*
X012187Y014655D01*
X012315Y014527D01*
X013231Y014527D01*
X013480Y014278D01*
X013867Y014278D01*
X014140Y014551D01*
X014140Y014834D01*
X014423Y014834D01*
X014697Y015108D01*
X014697Y015495D01*
X014423Y015768D01*
X014037Y015768D01*
X013763Y015495D01*
X013763Y015212D01*
X013480Y015212D01*
X013235Y014967D01*
X012498Y014967D01*
X012238Y015227D01*
X012531Y015227D01*
X012773Y014985D01*
X013160Y014985D01*
X013433Y015258D01*
X013433Y015542D01*
X013716Y015542D01*
X013990Y015815D01*
X013990Y016202D01*
X013967Y016225D01*
X013967Y016738D01*
X013838Y016867D01*
X013838Y016867D01*
X012528Y018177D01*
X011705Y018177D01*
X010435Y016907D01*
X010245Y016907D01*
X009973Y016634D01*
X009949Y016692D01*
X009842Y016799D01*
X009787Y016821D01*
X010257Y017296D01*
X010321Y017360D01*
X010321Y017361D01*
X010322Y017361D01*
X010321Y017408D01*
X010362Y017425D01*
X010491Y017555D01*
X010508Y017595D01*
X010856Y017595D01*
X011618Y018357D01*
X011762Y018357D01*
X011902Y018414D01*
X012009Y018521D01*
X012067Y018661D01*
X012067Y018812D01*
X012009Y018952D01*
X011902Y019059D01*
X011762Y019117D01*
X011611Y019117D01*
X011471Y019059D01*
X011364Y018952D01*
X011307Y018812D01*
X011307Y018668D01*
X010674Y018035D01*
X010508Y018035D01*
X010491Y018076D01*
X010362Y018205D01*
X010353Y018209D01*
X010362Y018213D01*
X010491Y018342D01*
X010561Y018511D01*
X010561Y018694D01*
X010491Y018863D01*
X010362Y018993D01*
X010193Y019063D01*
X010010Y019063D01*
X009841Y018993D01*
X009711Y018863D01*
X009707Y018854D01*
X009704Y018863D01*
X009574Y018993D01*
X009405Y019063D01*
X009222Y019063D01*
X009053Y018993D01*
X008924Y018863D01*
X008920Y018854D01*
X008916Y018863D01*
X008787Y018993D01*
X008618Y019063D01*
X008435Y019063D01*
X008266Y018993D01*
X008136Y018863D01*
X008133Y018854D01*
X008129Y018863D01*
X007999Y018993D01*
X007830Y019063D01*
X007647Y019063D01*
X007478Y018993D01*
X007349Y018863D01*
X007345Y018854D01*
X007341Y018863D01*
X007212Y018993D01*
X007043Y019063D01*
X006860Y019063D01*
X006691Y018993D01*
X006562Y018863D01*
X006558Y018854D01*
X006554Y018863D01*
X006425Y018993D01*
X006256Y019063D01*
X006073Y019063D01*
X005904Y018993D01*
X005774Y018863D01*
X005770Y018854D01*
X005767Y018863D01*
X005637Y018993D01*
X005468Y019063D01*
X005285Y019063D01*
X005116Y018993D01*
X004987Y018863D01*
X004983Y018854D01*
X004979Y018863D01*
X004850Y018993D01*
X004681Y019063D01*
X004498Y019063D01*
X004329Y018993D01*
X004199Y018863D01*
X004196Y018854D01*
X004192Y018863D01*
X004062Y018993D01*
X003893Y019063D01*
X003710Y019063D01*
X003541Y018993D01*
X003412Y018863D01*
X003408Y018854D01*
X003404Y018863D01*
X003275Y018993D01*
X003106Y019063D01*
X002923Y019063D01*
X002754Y018993D01*
X002625Y018863D01*
X002555Y018694D01*
X002555Y018511D01*
X002625Y018342D01*
X002754Y018213D01*
X002793Y018196D01*
X002784Y018191D01*
X002728Y018151D01*
X002679Y018102D01*
X002638Y018046D01*
X002607Y017984D01*
X002585Y017918D01*
X002575Y017850D01*
X002575Y017834D01*
X002996Y017834D01*
X002996Y017796D01*
X003033Y017796D01*
X003033Y017375D01*
X003049Y017375D01*
X003118Y017386D01*
X003183Y017407D01*
X003187Y017409D01*
X003187Y017407D01*
X003186Y017317D01*
X003187Y017316D01*
X003187Y017035D01*
X003121Y016970D01*
X003117Y016958D01*
X003112Y016970D01*
X003044Y017037D01*
X002957Y017073D01*
X002586Y017073D01*
X002498Y017037D01*
X002431Y016970D01*
X002394Y016882D01*
X002394Y016511D01*
X002431Y016423D01*
X002491Y016363D01*
X002491Y016363D01*
X002385Y016258D01*
X002385Y015675D01*
X002491Y015570D01*
X003033Y015570D01*
X003111Y015647D01*
X003136Y015622D01*
X003173Y015601D01*
X003213Y015590D01*
X003393Y015590D01*
X003393Y015928D01*
X003470Y015928D01*
X003470Y016005D01*
X003788Y016005D01*
X003788Y016204D01*
X003777Y016245D01*
X003756Y016281D01*
X003726Y016311D01*
X003690Y016332D01*
X003682Y016334D01*
X003735Y016356D01*
X003802Y016423D01*
X003825Y016477D01*
X003864Y016381D01*
X003971Y016274D01*
X004111Y016217D01*
X004262Y016217D01*
X004271Y016220D01*
X005188Y015294D01*
X005252Y015230D01*
X005316Y015165D01*
X005317Y015165D01*
X005408Y015165D01*
X005454Y015165D01*
X005454Y015115D01*
X005551Y015018D01*
X005468Y014935D01*
X005468Y014638D01*
X005678Y014428D01*
X005975Y014428D01*
X006185Y014638D01*
X006185Y014834D01*
X006297Y014946D01*
X006361Y015010D01*
X007013Y015010D01*
X006878Y014875D01*
X006878Y014578D01*
X007017Y014440D01*
X007017Y013448D01*
X006848Y013617D01*
X005328Y013617D01*
X005195Y013749D01*
X005195Y013945D01*
X004985Y014155D01*
X004688Y014155D01*
X004497Y013963D01*
X004497Y014150D01*
X004635Y014288D01*
X004635Y014585D01*
X004425Y014795D01*
X004137Y014795D01*
X004137Y014978D01*
X004051Y015064D01*
X004155Y015168D01*
X004155Y015465D01*
X003945Y015675D01*
X003769Y015675D01*
X003777Y015688D01*
X003788Y015729D01*
X003788Y015928D01*
X003470Y015928D01*
X003470Y015590D01*
X003563Y015590D01*
X003438Y015465D01*
X003438Y015168D01*
X003577Y015030D01*
X003577Y014915D01*
X003697Y014795D01*
X003697Y014125D01*
X003807Y014015D01*
X003807Y013355D01*
X004167Y012995D01*
X004167Y012924D01*
X004134Y012892D01*
X004077Y012752D01*
X004077Y012601D01*
X004134Y012461D01*
X004241Y012354D01*
X004381Y012297D01*
X004408Y012297D01*
X004408Y012068D01*
X004618Y011858D01*
X004915Y011858D01*
X005016Y011959D01*
X005061Y011914D01*
X005201Y011857D01*
X005352Y011857D01*
X005387Y011871D01*
X005387Y011831D01*
X005444Y011691D01*
X005474Y011661D01*
X005418Y011605D01*
X005418Y011308D01*
X005628Y011098D01*
X005925Y011098D01*
X006135Y011308D01*
X006135Y011605D01*
X006069Y011671D01*
X006089Y011691D01*
X006147Y011831D01*
X006147Y011924D01*
X006164Y011881D01*
X006267Y011779D01*
X006267Y011265D01*
X007537Y009995D01*
X007665Y009867D01*
X007948Y009867D01*
X007948Y009826D01*
X008054Y009721D01*
X008636Y009721D01*
X008742Y009826D01*
X008742Y009847D01*
X008966Y009847D01*
X008967Y009846D01*
X009057Y009847D01*
X009148Y009847D01*
X009149Y009847D01*
X009213Y009911D01*
X009277Y009975D01*
X009277Y009976D01*
X009848Y010555D01*
X009848Y010528D01*
X009967Y010410D01*
X009967Y010236D01*
X009347Y009617D01*
X005476Y009617D01*
X003827Y011266D01*
X003827Y013157D01*
X003790Y013245D01*
X003723Y013313D01*
X003455Y013580D01*
X003485Y013652D01*
X003485Y013871D01*
X003401Y014073D01*
X003246Y014228D01*
X003140Y014271D01*
X003212Y014308D01*
X003280Y014357D01*
X003339Y014416D01*
X003388Y014483D01*
X003426Y014558D01*
X003451Y014637D01*
X003465Y014720D01*
X003465Y014721D01*
X002975Y014721D01*
X002975Y014801D01*
X003465Y014801D01*
X003465Y014803D01*
X003451Y014885D01*
X003426Y014965D01*
X003388Y015039D01*
X003339Y015107D01*
X003280Y015166D01*
X003212Y015215D01*
X003138Y015252D01*
X003059Y015278D01*
X002976Y015291D01*
X002975Y015291D01*
X002975Y014801D01*
X002895Y014801D01*
X002895Y015291D01*
X002893Y015291D01*
X002810Y015278D01*
X002731Y015252D01*
X002657Y015215D01*
X002589Y015166D01*
X002530Y015107D01*
X002481Y015039D01*
X002443Y014965D01*
X002418Y014885D01*
X002405Y014803D01*
X002405Y014801D01*
X002895Y014801D01*
X002895Y014721D01*
X002405Y014721D01*
X002405Y014720D01*
X002418Y014637D01*
X002443Y014558D01*
X002481Y014483D01*
X002530Y014416D01*
X002589Y014357D01*
X002657Y014308D01*
X002729Y014271D01*
X002623Y014228D01*
X002468Y014073D01*
X002385Y013871D01*
X002385Y013652D01*
X002468Y013450D01*
X002623Y013295D01*
X002825Y013211D01*
X003044Y013211D01*
X003115Y013241D01*
X003347Y013010D01*
X003347Y011119D01*
X003383Y011031D01*
X003779Y010635D01*
X003508Y010635D01*
X003298Y010425D01*
X003298Y010128D01*
X003508Y009918D01*
X003676Y009918D01*
X004476Y009118D01*
X004205Y009118D01*
X004100Y009013D01*
X004100Y008961D01*
X003792Y008961D01*
X003792Y009294D01*
X003686Y009399D01*
X003027Y009399D01*
X003027Y012042D01*
X003165Y012180D01*
X003165Y012493D01*
X002943Y012715D01*
X002630Y012715D01*
X002408Y012493D01*
X002408Y012180D01*
X002587Y012002D01*
X002587Y008735D01*
X002715Y008607D01*
X002802Y008607D01*
X002802Y008239D01*
X002907Y008134D01*
X003686Y008134D01*
X003792Y008239D01*
X003792Y008521D01*
X004100Y008521D01*
X004100Y008470D01*
X004177Y008392D01*
X004152Y008367D01*
X004131Y008331D01*
X004120Y008290D01*
X004120Y008110D01*
X004458Y008110D01*
X004458Y008033D01*
X004535Y008033D01*
X004535Y007715D01*
X004734Y007715D01*
X004775Y007726D01*
X004811Y007747D01*
X004841Y007777D01*
X004862Y007813D01*
X004873Y007854D01*
X004873Y008033D01*
X004535Y008033D01*
X004535Y008110D01*
X004873Y008110D01*
X004873Y008290D01*
X004862Y008331D01*
X004841Y008367D01*
X004816Y008392D01*
X004893Y008470D01*
X004893Y008701D01*
X005383Y008211D01*
X005451Y008143D01*
X005539Y008107D01*
X006427Y008107D01*
X006427Y007533D01*
X006325Y007635D01*
X006028Y007635D01*
X005818Y007425D01*
X005818Y007288D01*
X005069Y006546D01*
X003792Y006546D01*
X003792Y006814D01*
X003686Y006919D01*
X002907Y006919D01*
X002802Y006814D01*
X002802Y005759D01*
X002907Y005654D01*
X003037Y005654D01*
X003037Y005463D01*
X002938Y005365D01*
X002938Y005068D01*
X003148Y004858D01*
X003445Y004858D01*
X003506Y004919D02*
X007492Y004919D01*
X007492Y004801D02*
X002496Y004801D01*
X002436Y004919D02*
X003087Y004919D01*
X002969Y005038D02*
X002397Y005038D01*
X002358Y005156D02*
X002938Y005156D01*
X002938Y005275D02*
X002320Y005275D01*
X002281Y005393D02*
X002966Y005393D01*
X003037Y005512D02*
X002243Y005512D01*
X002208Y005630D02*
X003037Y005630D01*
X002812Y005749D02*
X002190Y005749D01*
X002171Y005867D02*
X002802Y005867D01*
X002802Y005986D02*
X002152Y005986D01*
X002133Y006104D02*
X002802Y006104D01*
X002802Y006223D02*
X002115Y006223D01*
X002099Y006341D02*
X002802Y006341D01*
X002802Y006460D02*
X002095Y006460D01*
X002090Y006578D02*
X002802Y006578D01*
X002802Y006697D02*
X002087Y006697D01*
X002087Y006815D02*
X002803Y006815D01*
X002087Y006934D02*
X005461Y006934D01*
X005580Y007052D02*
X002087Y007052D01*
X002087Y007171D02*
X005700Y007171D01*
X005818Y007289D02*
X002087Y007289D01*
X002087Y007408D02*
X005818Y007408D01*
X005919Y007526D02*
X002087Y007526D01*
X002087Y007645D02*
X006427Y007645D01*
X006427Y007763D02*
X004827Y007763D01*
X004873Y007882D02*
X006427Y007882D01*
X006427Y008000D02*
X004873Y008000D01*
X004873Y008119D02*
X005510Y008119D01*
X005357Y008237D02*
X004873Y008237D01*
X004848Y008356D02*
X005238Y008356D01*
X005120Y008474D02*
X004893Y008474D01*
X004893Y008593D02*
X005001Y008593D01*
X004535Y008000D02*
X004458Y008000D01*
X004458Y008033D02*
X004458Y007715D01*
X004259Y007715D01*
X004218Y007726D01*
X004182Y007747D01*
X004152Y007777D01*
X004131Y007813D01*
X004120Y007854D01*
X004120Y008033D01*
X004458Y008033D01*
X004458Y007882D02*
X004535Y007882D01*
X004535Y007763D02*
X004458Y007763D01*
X004166Y007763D02*
X002087Y007763D01*
X002087Y007882D02*
X004120Y007882D01*
X004120Y008000D02*
X002087Y008000D01*
X002087Y008119D02*
X004120Y008119D01*
X004120Y008237D02*
X003789Y008237D01*
X003792Y008356D02*
X004145Y008356D01*
X004100Y008474D02*
X003792Y008474D01*
X003792Y009067D02*
X004154Y009067D01*
X004290Y009304D02*
X003782Y009304D01*
X003792Y009185D02*
X004409Y009185D01*
X004172Y009422D02*
X003027Y009422D01*
X003027Y009541D02*
X004053Y009541D01*
X003935Y009659D02*
X003027Y009659D01*
X003027Y009778D02*
X003816Y009778D01*
X003698Y009896D02*
X003027Y009896D01*
X003027Y010015D02*
X003412Y010015D01*
X003298Y010133D02*
X003027Y010133D01*
X003027Y010252D02*
X003298Y010252D01*
X003298Y010370D02*
X003027Y010370D01*
X003027Y010489D02*
X003362Y010489D01*
X003480Y010607D02*
X003027Y010607D01*
X003027Y010726D02*
X003688Y010726D01*
X003570Y010844D02*
X003027Y010844D01*
X003027Y010963D02*
X003451Y010963D01*
X003362Y011081D02*
X003027Y011081D01*
X003027Y011200D02*
X003347Y011200D01*
X003347Y011318D02*
X003027Y011318D01*
X003027Y011437D02*
X003347Y011437D01*
X003347Y011555D02*
X003027Y011555D01*
X003027Y011674D02*
X003347Y011674D01*
X003347Y011792D02*
X003027Y011792D01*
X003027Y011911D02*
X003347Y011911D01*
X003347Y012029D02*
X003027Y012029D01*
X003132Y012148D02*
X003347Y012148D01*
X003347Y012266D02*
X003165Y012266D01*
X003165Y012385D02*
X003347Y012385D01*
X003347Y012503D02*
X003155Y012503D01*
X003036Y012622D02*
X003347Y012622D01*
X003347Y012740D02*
X002087Y012740D01*
X002087Y012622D02*
X002537Y012622D01*
X002418Y012503D02*
X002087Y012503D01*
X002087Y012385D02*
X002408Y012385D01*
X002408Y012266D02*
X002087Y012266D01*
X002087Y012148D02*
X002441Y012148D01*
X002559Y012029D02*
X002087Y012029D01*
X002087Y011911D02*
X002587Y011911D01*
X002587Y011792D02*
X002087Y011792D01*
X002087Y011674D02*
X002587Y011674D01*
X002587Y011555D02*
X002087Y011555D01*
X002087Y011437D02*
X002587Y011437D01*
X002587Y011318D02*
X002087Y011318D01*
X002087Y011200D02*
X002587Y011200D01*
X002587Y011081D02*
X002087Y011081D01*
X002087Y010963D02*
X002587Y010963D01*
X002587Y010844D02*
X002087Y010844D01*
X002087Y010726D02*
X002587Y010726D01*
X002587Y010607D02*
X002087Y010607D01*
X002087Y010489D02*
X002587Y010489D01*
X002587Y010370D02*
X002087Y010370D01*
X002087Y010252D02*
X002587Y010252D01*
X002587Y010133D02*
X002087Y010133D01*
X002087Y010015D02*
X002587Y010015D01*
X002587Y009896D02*
X002087Y009896D01*
X002087Y009778D02*
X002587Y009778D01*
X002587Y009659D02*
X002087Y009659D01*
X002087Y009541D02*
X002587Y009541D01*
X002587Y009422D02*
X002087Y009422D01*
X002087Y009304D02*
X002587Y009304D01*
X002587Y009185D02*
X002087Y009185D01*
X002087Y009067D02*
X002587Y009067D01*
X002587Y008948D02*
X002087Y008948D01*
X002087Y008830D02*
X002587Y008830D01*
X002611Y008711D02*
X002087Y008711D01*
X002087Y008593D02*
X002802Y008593D01*
X002802Y008474D02*
X002087Y008474D01*
X002087Y008356D02*
X002802Y008356D01*
X002804Y008237D02*
X002087Y008237D01*
X003657Y010277D02*
X005587Y008347D01*
X006667Y008347D01*
X006667Y005977D01*
X006958Y005685D01*
X008263Y005685D01*
X008263Y005363D01*
X007967Y005067D01*
X007967Y004501D01*
X007553Y003971D02*
X004078Y003971D01*
X004127Y004090D02*
X007492Y004090D01*
X007492Y004208D02*
X004137Y004208D01*
X004117Y004327D02*
X007492Y004327D01*
X007492Y004445D02*
X004062Y004445D01*
X003928Y004564D02*
X007492Y004564D01*
X007492Y004682D02*
X002556Y004682D01*
X003159Y003734D02*
X007674Y003734D01*
X007556Y003616D02*
X003270Y003616D01*
X003388Y003497D02*
X006755Y003497D01*
X006704Y003379D02*
X003507Y003379D01*
X003625Y003260D02*
X006704Y003260D01*
X006704Y003142D02*
X003766Y003142D01*
X003929Y003023D02*
X006704Y003023D01*
X006704Y002905D02*
X004092Y002905D01*
X004255Y002786D02*
X006704Y002786D01*
X006704Y002668D02*
X004483Y002668D01*
X004716Y002549D02*
X011532Y002549D01*
X011532Y002431D02*
X004974Y002431D01*
X005339Y002312D02*
X011532Y002312D01*
X011532Y002194D02*
X005830Y002194D01*
X007336Y003057D02*
X007946Y003667D01*
X008977Y003667D01*
X009148Y003838D01*
X009148Y004500D01*
X009157Y004509D02*
X009157Y004967D01*
X008957Y005167D01*
X008957Y005673D01*
X008952Y005685D02*
X008952Y006291D01*
X007967Y007277D01*
X007727Y007277D01*
X007477Y007027D01*
X007477Y006467D01*
X007367Y006357D01*
X006674Y005630D02*
X003557Y005630D01*
X003557Y005512D02*
X006792Y005512D01*
X006754Y005549D02*
X006754Y005549D01*
X006555Y005749D02*
X003781Y005749D01*
X003792Y005867D02*
X006452Y005867D01*
X006427Y005986D02*
X003792Y005986D01*
X003792Y006578D02*
X005101Y006578D01*
X005221Y006697D02*
X003792Y006697D01*
X003790Y006815D02*
X005341Y006815D01*
X005721Y006460D02*
X006427Y006460D01*
X006427Y006578D02*
X005841Y006578D01*
X005960Y006697D02*
X006427Y006697D01*
X006427Y006815D02*
X006080Y006815D01*
X006340Y006934D02*
X006427Y006934D01*
X006427Y006341D02*
X005601Y006341D01*
X005481Y006223D02*
X006427Y006223D01*
X006427Y006104D02*
X005362Y006104D01*
X006531Y005773D02*
X006531Y005773D01*
X007560Y005038D02*
X003624Y005038D01*
X003655Y005156D02*
X007744Y005156D01*
X007835Y005275D02*
X003655Y005275D01*
X003627Y005393D02*
X007881Y005393D01*
X008395Y005156D02*
X008717Y005156D01*
X008717Y005275D02*
X008486Y005275D01*
X008373Y005038D02*
X008742Y005038D01*
X008673Y004919D02*
X008442Y004919D01*
X008442Y004801D02*
X008673Y004801D01*
X008673Y004682D02*
X008442Y004682D01*
X008442Y004564D02*
X008673Y004564D01*
X008673Y004445D02*
X008442Y004445D01*
X008442Y004327D02*
X008673Y004327D01*
X008673Y004208D02*
X008442Y004208D01*
X008442Y004090D02*
X008673Y004090D01*
X008734Y003971D02*
X008381Y003971D01*
X007998Y003379D02*
X009184Y003379D01*
X009184Y003260D02*
X007969Y003260D01*
X007969Y003142D02*
X009184Y003142D01*
X009184Y003023D02*
X007969Y003023D01*
X007969Y002905D02*
X009184Y002905D01*
X009184Y002786D02*
X007969Y002786D01*
X007969Y002668D02*
X009184Y002668D01*
X009146Y003497D02*
X009235Y003497D01*
X009265Y003616D02*
X009992Y003616D01*
X009992Y003734D02*
X009365Y003734D01*
X009388Y003853D02*
X009992Y003853D01*
X009992Y003971D02*
X009562Y003971D01*
X009623Y004090D02*
X009992Y004090D01*
X009835Y004208D02*
X009623Y004208D01*
X009623Y004327D02*
X009835Y004327D01*
X009835Y004445D02*
X009623Y004445D01*
X009623Y004564D02*
X009835Y004564D01*
X009835Y004682D02*
X009623Y004682D01*
X009623Y004801D02*
X009858Y004801D01*
X009623Y004919D02*
X011393Y004919D01*
X011487Y004801D02*
X011207Y004801D01*
X011238Y004682D02*
X011487Y004682D01*
X011487Y004564D02*
X011238Y004564D01*
X011238Y004448D02*
X010920Y004448D01*
X010920Y004110D01*
X011099Y004110D01*
X011140Y004121D01*
X011176Y004142D01*
X011206Y004172D01*
X011227Y004208D01*
X011487Y004208D01*
X011487Y004090D02*
X010432Y004090D01*
X010432Y003971D02*
X011581Y003971D01*
X011800Y003853D02*
X010432Y003853D01*
X010432Y003734D02*
X011896Y003734D01*
X011966Y003616D02*
X010432Y003616D01*
X010432Y003497D02*
X011847Y003497D01*
X011729Y003379D02*
X010449Y003379D01*
X010449Y003260D02*
X011610Y003260D01*
X011532Y002786D02*
X010449Y002786D01*
X010449Y002668D02*
X011532Y002668D01*
X012420Y003616D02*
X013107Y003616D01*
X012992Y003734D02*
X012497Y003734D01*
X012593Y003853D02*
X012992Y003853D01*
X012992Y003971D02*
X012593Y003971D01*
X012593Y004090D02*
X012992Y004090D01*
X013106Y004208D02*
X012593Y004208D01*
X012593Y004327D02*
X013225Y004327D01*
X013256Y004495D02*
X013012Y004739D01*
X013012Y004894D01*
X013410Y004894D01*
X013410Y004931D01*
X013012Y004931D01*
X013012Y005085D01*
X013256Y005330D01*
X013410Y005330D01*
X013410Y004931D01*
X013448Y004931D01*
X013847Y004931D01*
X013847Y005085D01*
X013602Y005330D01*
X013448Y005330D01*
X013448Y004931D01*
X013448Y004894D01*
X013847Y004894D01*
X013847Y004739D01*
X013602Y004495D01*
X013448Y004495D01*
X013448Y004894D01*
X013410Y004894D01*
X013410Y004495D01*
X013256Y004495D01*
X013187Y004564D02*
X012593Y004564D01*
X012593Y004682D02*
X013069Y004682D01*
X013012Y004801D02*
X012593Y004801D01*
X012593Y004919D02*
X013410Y004919D01*
X013448Y004919D02*
X013992Y004919D01*
X013992Y004801D02*
X013847Y004801D01*
X013888Y004682D02*
X013789Y004682D01*
X013769Y004564D02*
X013671Y004564D01*
X013737Y004445D02*
X012538Y004445D01*
X012593Y005038D02*
X013012Y005038D01*
X013083Y005156D02*
X012123Y005156D01*
X012004Y005275D02*
X013201Y005275D01*
X013248Y005475D02*
X013610Y005475D01*
X013867Y005731D01*
X013867Y006094D01*
X013610Y006350D01*
X013248Y006350D01*
X012992Y006094D01*
X012992Y005731D01*
X013248Y005475D01*
X013211Y005512D02*
X011917Y005512D01*
X011917Y005630D02*
X013093Y005630D01*
X012992Y005749D02*
X011917Y005749D01*
X011917Y005867D02*
X012992Y005867D01*
X012992Y005986D02*
X011917Y005986D01*
X011917Y006104D02*
X013002Y006104D01*
X013121Y006223D02*
X012009Y006223D01*
X012055Y006341D02*
X013239Y006341D01*
X013248Y006475D02*
X013610Y006475D01*
X013867Y006731D01*
X013867Y007094D01*
X013610Y007350D01*
X013248Y007350D01*
X012992Y007094D01*
X012992Y006731D01*
X013248Y006475D01*
X013145Y006578D02*
X012042Y006578D01*
X012055Y006460D02*
X014709Y006460D01*
X014709Y006341D02*
X013619Y006341D01*
X013738Y006223D02*
X014149Y006223D01*
X014256Y006330D02*
X014012Y006085D01*
X014012Y005931D01*
X014410Y005931D01*
X014410Y006330D01*
X014256Y006330D01*
X014410Y006223D02*
X014448Y006223D01*
X014448Y006104D02*
X014410Y006104D01*
X014410Y005986D02*
X014448Y005986D01*
X014448Y005867D02*
X014410Y005867D01*
X014410Y005749D02*
X014448Y005749D01*
X014448Y005630D02*
X014410Y005630D01*
X014410Y005512D02*
X014448Y005512D01*
X014619Y005512D02*
X014709Y005512D01*
X014709Y005393D02*
X011917Y005393D01*
X011477Y006104D02*
X009192Y006104D01*
X009192Y006223D02*
X011384Y006223D01*
X011338Y006341D02*
X009191Y006341D01*
X009123Y006460D02*
X011338Y006460D01*
X011351Y006578D02*
X009004Y006578D01*
X008886Y006697D02*
X011470Y006697D01*
X011558Y007028D02*
X011855Y007028D01*
X012065Y007238D01*
X012065Y007535D01*
X011855Y007745D01*
X011558Y007745D01*
X011420Y007607D01*
X010423Y007607D01*
X010295Y007735D01*
X009998Y007735D01*
X009788Y007525D01*
X009788Y007228D01*
X009998Y007018D01*
X010295Y007018D01*
X010443Y007167D01*
X011420Y007167D01*
X011558Y007028D01*
X011534Y007052D02*
X010329Y007052D01*
X009964Y007052D02*
X008530Y007052D01*
X008412Y007171D02*
X009846Y007171D01*
X009788Y007289D02*
X008293Y007289D01*
X008175Y007408D02*
X009788Y007408D01*
X009789Y007526D02*
X007545Y007526D01*
X007921Y007645D02*
X008007Y007645D01*
X008007Y007763D02*
X007921Y007763D01*
X007921Y007882D02*
X008007Y007882D01*
X008331Y007882D02*
X012992Y007882D01*
X012992Y008000D02*
X008331Y008000D01*
X008331Y007763D02*
X012992Y007763D01*
X012992Y007731D02*
X013248Y007475D01*
X013610Y007475D01*
X013867Y007731D01*
X013867Y008094D01*
X013610Y008350D01*
X013248Y008350D01*
X012992Y008094D01*
X012992Y007731D01*
X013078Y007645D02*
X011955Y007645D01*
X012065Y007526D02*
X013197Y007526D01*
X013187Y007289D02*
X012065Y007289D01*
X012065Y007408D02*
X014709Y007408D01*
X014709Y007526D02*
X014662Y007526D01*
X014671Y007289D02*
X014709Y007289D01*
X015189Y007289D02*
X015247Y007289D01*
X015247Y007171D02*
X015189Y007171D01*
X015189Y007052D02*
X015247Y007052D01*
X015247Y006934D02*
X015189Y006934D01*
X015189Y006815D02*
X015247Y006815D01*
X015247Y006697D02*
X015189Y006697D01*
X015189Y006578D02*
X015247Y006578D01*
X015247Y006460D02*
X015189Y006460D01*
X015189Y006341D02*
X015247Y006341D01*
X015247Y006223D02*
X015189Y006223D01*
X015189Y006104D02*
X015247Y006104D01*
X015247Y005986D02*
X015189Y005986D01*
X015189Y005867D02*
X015247Y005867D01*
X015247Y005749D02*
X015189Y005749D01*
X015189Y005630D02*
X015247Y005630D01*
X015247Y005512D02*
X015189Y005512D01*
X015189Y005393D02*
X015247Y005393D01*
X015247Y005275D02*
X015189Y005275D01*
X015189Y005156D02*
X015247Y005156D01*
X015247Y005038D02*
X015189Y005038D01*
X015189Y004919D02*
X015247Y004919D01*
X015247Y004801D02*
X015189Y004801D01*
X015189Y004682D02*
X015247Y004682D01*
X015247Y004564D02*
X015189Y004564D01*
X015189Y004445D02*
X015247Y004445D01*
X015247Y004327D02*
X015165Y004327D01*
X015247Y004208D02*
X015064Y004208D01*
X014946Y004090D02*
X015247Y004090D01*
X015247Y003971D02*
X014867Y003971D01*
X014867Y003853D02*
X015247Y003853D01*
X015247Y003734D02*
X014867Y003734D01*
X014751Y003616D02*
X015247Y003616D01*
X015247Y003497D02*
X014669Y003497D01*
X014669Y003379D02*
X015247Y003379D01*
X015247Y003260D02*
X014700Y003260D01*
X014819Y003142D02*
X015247Y003142D01*
X015247Y003023D02*
X014867Y003023D01*
X014867Y002905D02*
X015247Y002905D01*
X015247Y002786D02*
X014867Y002786D01*
X014803Y002668D02*
X015247Y002668D01*
X015247Y002549D02*
X014685Y002549D01*
X014429Y002912D02*
X014429Y003912D01*
X014949Y004432D01*
X014949Y008373D01*
X014489Y008832D01*
X014508Y008474D02*
X010814Y008474D01*
X010837Y008593D02*
X013130Y008593D01*
X013248Y008475D02*
X012992Y008731D01*
X012992Y009094D01*
X013248Y009350D01*
X013610Y009350D01*
X013867Y009094D01*
X013867Y008731D01*
X013610Y008475D01*
X013248Y008475D01*
X013135Y008237D02*
X010596Y008237D01*
X010715Y008356D02*
X014626Y008356D01*
X014950Y008711D02*
X015247Y008711D01*
X015247Y008593D02*
X015068Y008593D01*
X015166Y008474D02*
X015247Y008474D01*
X015247Y008356D02*
X015189Y008356D01*
X015189Y008237D02*
X015247Y008237D01*
X015247Y008119D02*
X015189Y008119D01*
X015189Y008000D02*
X015247Y008000D01*
X015247Y007882D02*
X015189Y007882D01*
X015189Y007763D02*
X015247Y007763D01*
X015247Y007645D02*
X015189Y007645D01*
X015189Y007526D02*
X015247Y007526D01*
X015247Y007408D02*
X015189Y007408D01*
X014197Y007526D02*
X013662Y007526D01*
X013780Y007645D02*
X014078Y007645D01*
X013992Y007763D02*
X013867Y007763D01*
X013867Y007882D02*
X013992Y007882D01*
X013992Y008000D02*
X013867Y008000D01*
X013842Y008119D02*
X014017Y008119D01*
X014135Y008237D02*
X013723Y008237D01*
X013728Y008593D02*
X014130Y008593D01*
X014012Y008711D02*
X013847Y008711D01*
X013867Y008830D02*
X013992Y008830D01*
X013992Y008948D02*
X013867Y008948D01*
X013867Y009067D02*
X013992Y009067D01*
X014083Y009185D02*
X013775Y009185D01*
X013657Y009304D02*
X014202Y009304D01*
X014113Y009422D02*
X015247Y009422D01*
X015247Y009304D02*
X014657Y009304D01*
X014775Y009185D02*
X015247Y009185D01*
X015247Y009067D02*
X014867Y009067D01*
X014867Y008948D02*
X015247Y008948D01*
X015247Y008830D02*
X014867Y008830D01*
X015247Y009541D02*
X014396Y009541D01*
X014576Y009659D02*
X015247Y009659D01*
X015247Y009778D02*
X014644Y009778D01*
X014667Y009896D02*
X015247Y009896D01*
X015247Y010015D02*
X014653Y010015D01*
X014597Y010133D02*
X015247Y010133D01*
X015247Y010252D02*
X014563Y010252D01*
X014681Y010370D02*
X015247Y010370D01*
X015247Y010489D02*
X014800Y010489D01*
X014917Y010607D02*
X015247Y010607D01*
X015247Y010726D02*
X014917Y010726D01*
X014917Y010844D02*
X015247Y010844D01*
X015247Y010963D02*
X014917Y010963D01*
X014917Y011081D02*
X015247Y011081D01*
X015247Y011200D02*
X014917Y011200D01*
X014917Y011318D02*
X015247Y011318D01*
X015247Y011437D02*
X014917Y011437D01*
X014917Y011555D02*
X015247Y011555D01*
X015247Y011674D02*
X014917Y011674D01*
X014917Y011792D02*
X015247Y011792D01*
X015247Y011911D02*
X014917Y011911D01*
X014917Y012029D02*
X015247Y012029D01*
X015247Y012148D02*
X014877Y012148D01*
X014758Y012266D02*
X015247Y012266D01*
X015247Y012385D02*
X014640Y012385D01*
X014521Y012503D02*
X015247Y012503D01*
X015247Y012622D02*
X015021Y012622D01*
X014985Y012585D02*
X015097Y012697D01*
X015097Y012817D01*
X015097Y012911D01*
X015097Y013128D01*
X015086Y013139D01*
X015112Y013189D01*
X015107Y013204D01*
X015112Y013218D01*
X015083Y013277D01*
X015062Y013338D01*
X015048Y013345D01*
X015041Y013359D01*
X015027Y013364D01*
X015097Y013433D01*
X015097Y013880D01*
X015097Y013957D01*
X015097Y013957D01*
X015097Y014171D01*
X014985Y014282D01*
X014648Y014282D01*
X014536Y014171D01*
X014536Y014014D01*
X014550Y014000D01*
X014536Y013987D01*
X014536Y013710D01*
X014551Y013695D01*
X014536Y013681D01*
X014536Y013621D01*
X014536Y013541D01*
X014536Y013463D01*
X014607Y013392D01*
X014628Y013372D01*
X014581Y013278D01*
X014606Y013204D01*
X014581Y013129D01*
X014596Y013099D01*
X014596Y013068D01*
X014596Y013004D01*
X014566Y012974D01*
X014536Y012944D01*
X014536Y012697D01*
X014648Y012585D01*
X014925Y012585D01*
X014985Y012585D01*
X015097Y012740D02*
X015247Y012740D01*
X015247Y012859D02*
X015097Y012859D01*
X015097Y012817D02*
X015097Y012817D01*
X015097Y012911D02*
X015097Y012911D01*
X015097Y012977D02*
X015247Y012977D01*
X015247Y013096D02*
X015097Y013096D01*
X015110Y013214D02*
X015247Y013214D01*
X015247Y013333D02*
X015064Y013333D01*
X015097Y013451D02*
X015247Y013451D01*
X015247Y013570D02*
X015097Y013570D01*
X015097Y013688D02*
X015247Y013688D01*
X015247Y013807D02*
X015097Y013807D01*
X015097Y013925D02*
X015247Y013925D01*
X015247Y014044D02*
X015097Y014044D01*
X015097Y014162D02*
X015247Y014162D01*
X015247Y014281D02*
X014987Y014281D01*
X015247Y014399D02*
X013988Y014399D01*
X013870Y014281D02*
X014646Y014281D01*
X014536Y014162D02*
X009755Y014162D01*
X009755Y014044D02*
X014536Y014044D01*
X014536Y013925D02*
X009755Y013925D01*
X009673Y013807D02*
X014536Y013807D01*
X014544Y013688D02*
X010012Y013688D01*
X010130Y013570D02*
X014536Y013570D01*
X014536Y013621D02*
X014536Y013621D01*
X014536Y013463D02*
X014536Y013463D01*
X014536Y013463D01*
X014549Y013451D02*
X010155Y013451D01*
X010155Y013333D02*
X014608Y013333D01*
X014603Y013214D02*
X010121Y013214D01*
X010065Y013096D02*
X014596Y013096D01*
X014596Y013068D02*
X014596Y013068D01*
X014569Y012977D02*
X010140Y012977D01*
X010167Y012859D02*
X012597Y012859D01*
X012527Y012740D02*
X010158Y012740D01*
X010109Y012622D02*
X010836Y012622D01*
X010857Y012622D02*
X010937Y012622D01*
X010937Y012626D02*
X011002Y012613D01*
X011067Y012586D01*
X011126Y012546D01*
X011176Y012496D01*
X011216Y012437D01*
X011243Y012372D01*
X011256Y012307D01*
X010937Y012307D01*
X010937Y012227D01*
X011256Y012227D01*
X011243Y012162D01*
X011216Y012096D01*
X011176Y012037D01*
X011126Y011987D01*
X011067Y011948D01*
X011002Y011920D01*
X010937Y011907D01*
X010937Y012227D01*
X010857Y012227D01*
X010857Y011907D01*
X010792Y011920D01*
X010726Y011948D01*
X010667Y011987D01*
X010617Y012037D01*
X010578Y012096D01*
X010550Y012162D01*
X010537Y012227D01*
X010857Y012227D01*
X010857Y012307D01*
X010857Y012626D01*
X010792Y012613D01*
X010726Y012586D01*
X010667Y012546D01*
X010617Y012496D01*
X010578Y012437D01*
X010550Y012372D01*
X010537Y012307D01*
X010857Y012307D01*
X010937Y012307D01*
X010937Y012626D01*
X010957Y012622D02*
X012527Y012622D01*
X012142Y012503D02*
X011169Y012503D01*
X011237Y012385D02*
X012023Y012385D01*
X012012Y012266D02*
X010937Y012266D01*
X010857Y012266D02*
X009562Y012266D01*
X009600Y012148D02*
X010556Y012148D01*
X010625Y012029D02*
X009607Y012029D01*
X009577Y011911D02*
X010841Y011911D01*
X010857Y011911D02*
X010937Y011911D01*
X010952Y011911D02*
X012012Y011911D01*
X012012Y012029D02*
X011168Y012029D01*
X011237Y012148D02*
X012012Y012148D01*
X012407Y011647D02*
X011037Y011647D01*
X010597Y011207D01*
X010597Y008577D01*
X010367Y008347D01*
X006667Y008347D01*
X007636Y009896D02*
X005196Y009896D01*
X005078Y010015D02*
X007517Y010015D01*
X007399Y010133D02*
X004959Y010133D01*
X004841Y010252D02*
X007280Y010252D01*
X007162Y010370D02*
X004722Y010370D01*
X004604Y010489D02*
X007043Y010489D01*
X006925Y010607D02*
X004485Y010607D01*
X004367Y010726D02*
X006806Y010726D01*
X006688Y010844D02*
X004248Y010844D01*
X004130Y010963D02*
X006569Y010963D01*
X006451Y011081D02*
X004011Y011081D01*
X003893Y011200D02*
X005527Y011200D01*
X005418Y011318D02*
X003827Y011318D01*
X003827Y011437D02*
X005418Y011437D01*
X005418Y011555D02*
X003827Y011555D01*
X003827Y011674D02*
X005462Y011674D01*
X005403Y011792D02*
X003827Y011792D01*
X003827Y011911D02*
X004566Y011911D01*
X004447Y012029D02*
X003827Y012029D01*
X003827Y012148D02*
X004408Y012148D01*
X004408Y012266D02*
X003827Y012266D01*
X003827Y012385D02*
X004211Y012385D01*
X004117Y012503D02*
X003827Y012503D01*
X003827Y012622D02*
X004077Y012622D01*
X004077Y012740D02*
X003827Y012740D01*
X003827Y012859D02*
X004121Y012859D01*
X004167Y012977D02*
X003827Y012977D01*
X003827Y013096D02*
X004066Y013096D01*
X003948Y013214D02*
X003803Y013214D01*
X003829Y013333D02*
X003703Y013333D01*
X003807Y013451D02*
X003584Y013451D01*
X003466Y013570D02*
X003807Y013570D01*
X003807Y013688D02*
X003485Y013688D01*
X003485Y013807D02*
X003807Y013807D01*
X003807Y013925D02*
X003462Y013925D01*
X003413Y014044D02*
X003778Y014044D01*
X003697Y014162D02*
X003312Y014162D01*
X003159Y014281D02*
X003697Y014281D01*
X003697Y014399D02*
X003322Y014399D01*
X003405Y014518D02*
X003697Y014518D01*
X003697Y014636D02*
X003451Y014636D01*
X003697Y014755D02*
X002975Y014755D01*
X002895Y014755D02*
X002087Y014755D01*
X002087Y014873D02*
X002416Y014873D01*
X002457Y014992D02*
X002087Y014992D01*
X002087Y015110D02*
X002534Y015110D01*
X002684Y015229D02*
X002087Y015229D01*
X002087Y015347D02*
X003438Y015347D01*
X003438Y015229D02*
X003185Y015229D01*
X003335Y015110D02*
X003496Y015110D01*
X003577Y014992D02*
X003412Y014992D01*
X003453Y014873D02*
X003619Y014873D01*
X004123Y014992D02*
X005525Y014992D01*
X005468Y014873D02*
X004137Y014873D01*
X004097Y015110D02*
X005460Y015110D01*
X005317Y015165D02*
X005317Y015165D01*
X005253Y015229D02*
X004155Y015229D01*
X004155Y015347D02*
X005136Y015347D01*
X005188Y015294D02*
X005188Y015294D01*
X005019Y015466D02*
X004154Y015466D01*
X004036Y015584D02*
X004901Y015584D01*
X004784Y015703D02*
X003781Y015703D01*
X003788Y015821D02*
X004667Y015821D01*
X004549Y015940D02*
X003470Y015940D01*
X003470Y015821D02*
X003393Y015821D01*
X003393Y015703D02*
X003470Y015703D01*
X003557Y015584D02*
X003047Y015584D01*
X002975Y015229D02*
X002895Y015229D01*
X002895Y015110D02*
X002975Y015110D01*
X002975Y014992D02*
X002895Y014992D01*
X002895Y014873D02*
X002975Y014873D01*
X002547Y014399D02*
X002087Y014399D01*
X002087Y014281D02*
X002711Y014281D01*
X002557Y014162D02*
X002087Y014162D01*
X002087Y014044D02*
X002456Y014044D01*
X002407Y013925D02*
X002087Y013925D01*
X002087Y013807D02*
X002385Y013807D01*
X002385Y013688D02*
X002087Y013688D01*
X002087Y013570D02*
X002419Y013570D01*
X002468Y013451D02*
X002087Y013451D01*
X002087Y013333D02*
X002585Y013333D01*
X002818Y013214D02*
X002087Y013214D01*
X002087Y013096D02*
X003261Y013096D01*
X003347Y012977D02*
X002087Y012977D01*
X002087Y012859D02*
X003347Y012859D01*
X003587Y013109D02*
X003587Y011167D01*
X005377Y009377D01*
X009447Y009377D01*
X010207Y010137D01*
X010207Y010677D01*
X009888Y010489D02*
X009782Y010489D01*
X009665Y010370D02*
X009967Y010370D01*
X009967Y010252D02*
X009548Y010252D01*
X009431Y010133D02*
X009864Y010133D01*
X009745Y010015D02*
X009314Y010015D01*
X009197Y009896D02*
X009627Y009896D01*
X009508Y009778D02*
X008693Y009778D01*
X008742Y010287D02*
X008742Y010369D01*
X008664Y010446D01*
X008690Y010472D01*
X008711Y010508D01*
X008722Y010549D01*
X008722Y010728D01*
X008383Y010728D01*
X008383Y010805D01*
X008307Y010805D01*
X008307Y011124D01*
X008107Y011124D01*
X008067Y011113D01*
X008030Y011092D01*
X008000Y011062D01*
X007979Y011025D01*
X007968Y010985D01*
X007968Y010805D01*
X008307Y010805D01*
X008307Y010728D01*
X007968Y010728D01*
X007968Y010549D01*
X007979Y010508D01*
X008000Y010472D01*
X008026Y010446D01*
X007948Y010369D01*
X007948Y010307D01*
X007848Y010307D01*
X006707Y011448D01*
X006707Y011779D01*
X006762Y011834D01*
X006858Y011738D01*
X007155Y011738D01*
X007287Y011870D01*
X007428Y011728D01*
X007725Y011728D01*
X007820Y011823D01*
X007824Y011811D01*
X007907Y011729D01*
X007907Y011629D01*
X007943Y011541D01*
X008383Y011100D01*
X008383Y010805D01*
X008722Y010805D01*
X008722Y010957D01*
X008840Y010957D01*
X008958Y010838D01*
X009255Y010838D01*
X009465Y011048D01*
X009465Y011201D01*
X009597Y011070D01*
X009597Y010927D01*
X008965Y010287D01*
X008742Y010287D01*
X008740Y010370D02*
X009047Y010370D01*
X009164Y010489D02*
X008699Y010489D01*
X008722Y010607D02*
X009281Y010607D01*
X009398Y010726D02*
X008722Y010726D01*
X008722Y010844D02*
X008952Y010844D01*
X009261Y010844D02*
X009515Y010844D01*
X009597Y010963D02*
X009379Y010963D01*
X009465Y011081D02*
X009585Y011081D01*
X009467Y011200D02*
X009465Y011200D01*
X009458Y011437D02*
X009373Y011437D01*
X009508Y011555D02*
X008607Y011555D01*
X008489Y011674D02*
X009627Y011674D01*
X009499Y011792D02*
X010843Y011792D01*
X010724Y011674D02*
X010006Y011674D01*
X010125Y011555D02*
X010606Y011555D01*
X010487Y011437D02*
X010175Y011437D01*
X010175Y011318D02*
X010383Y011318D01*
X010357Y011200D02*
X010166Y011200D01*
X010048Y011081D02*
X010357Y011081D01*
X010837Y010370D02*
X011017Y010370D01*
X011082Y010252D02*
X010837Y010252D01*
X010837Y010133D02*
X011201Y010133D01*
X011375Y010015D02*
X010837Y010015D01*
X010837Y009896D02*
X011501Y009896D01*
X011501Y009778D02*
X010837Y009778D01*
X010837Y009659D02*
X011376Y009659D01*
X011345Y009541D02*
X010837Y009541D01*
X010837Y009422D02*
X011345Y009422D01*
X011345Y009304D02*
X010837Y009304D01*
X010837Y009185D02*
X011345Y009185D01*
X011345Y009067D02*
X010837Y009067D01*
X010837Y008948D02*
X011442Y008948D01*
X011741Y009385D02*
X011741Y009817D01*
X013397Y009817D01*
X013671Y010081D01*
X013671Y010897D01*
X013707Y010932D02*
X013707Y011287D01*
X013537Y011457D01*
X013911Y012622D02*
X014611Y012622D01*
X014536Y012740D02*
X013757Y012740D01*
X013686Y012859D02*
X014536Y012859D01*
X013477Y014281D02*
X009659Y014281D01*
X009344Y014518D02*
X013240Y014518D01*
X013358Y014399D02*
X009226Y014399D01*
X009355Y014636D02*
X012206Y014636D01*
X012087Y014755D02*
X009355Y014755D01*
X009774Y014873D02*
X011969Y014873D01*
X011850Y014992D02*
X010317Y014992D01*
X010462Y015110D02*
X011732Y015110D01*
X012088Y015667D02*
X011648Y016107D01*
X010724Y016107D01*
X010622Y016209D01*
X010482Y016267D01*
X010331Y016267D01*
X010191Y016209D01*
X010089Y016107D01*
X010068Y016107D01*
X010428Y016467D01*
X010435Y016467D01*
X010618Y016467D01*
X011096Y016945D01*
X011096Y016661D01*
X011370Y016388D01*
X011756Y016388D01*
X012030Y016661D01*
X012030Y016965D01*
X012305Y016965D01*
X012412Y017072D01*
X012120Y017364D01*
X012167Y017412D01*
X012460Y017119D01*
X012567Y017226D01*
X012567Y017515D01*
X012910Y017172D01*
X012633Y017172D01*
X012360Y016898D01*
X012360Y016615D01*
X012077Y016615D01*
X011803Y016341D01*
X011803Y015954D01*
X012077Y015681D01*
X012464Y015681D01*
X012737Y015954D01*
X012737Y016238D01*
X013020Y016238D01*
X013294Y016511D01*
X013294Y016788D01*
X013527Y016555D01*
X013527Y016476D01*
X013329Y016476D01*
X013056Y016202D01*
X013056Y015919D01*
X012773Y015919D01*
X012520Y015667D01*
X012088Y015667D01*
X012055Y015703D02*
X012052Y015703D01*
X011936Y015821D02*
X011933Y015821D01*
X011818Y015940D02*
X011815Y015940D01*
X011803Y016058D02*
X011696Y016058D01*
X011803Y016177D02*
X010654Y016177D01*
X010683Y016532D02*
X011225Y016532D01*
X011107Y016651D02*
X010802Y016651D01*
X010920Y016769D02*
X011096Y016769D01*
X011096Y016888D02*
X011039Y016888D01*
X010772Y017243D02*
X010205Y017243D01*
X010322Y017362D02*
X010890Y017362D01*
X011009Y017480D02*
X010417Y017480D01*
X010653Y017125D02*
X010088Y017125D01*
X009970Y017006D02*
X010535Y017006D01*
X010226Y016888D02*
X009853Y016888D01*
X009871Y016769D02*
X010108Y016769D01*
X009989Y016651D02*
X009966Y016651D01*
X010256Y016295D02*
X011803Y016295D01*
X011782Y016414D02*
X011876Y016414D01*
X011901Y016532D02*
X011994Y016532D01*
X012019Y016651D02*
X012360Y016651D01*
X012360Y016769D02*
X012030Y016769D01*
X012030Y016888D02*
X012360Y016888D01*
X012346Y017006D02*
X012468Y017006D01*
X012465Y017125D02*
X012587Y017125D01*
X012567Y017243D02*
X012839Y017243D01*
X012720Y017362D02*
X012567Y017362D01*
X012567Y017480D02*
X012602Y017480D01*
X012336Y017243D02*
X012241Y017243D01*
X012217Y017362D02*
X012122Y017362D01*
X012359Y017125D02*
X012454Y017125D01*
X012869Y017836D02*
X013902Y017836D01*
X013850Y017784D02*
X013787Y017630D01*
X013787Y017463D01*
X013850Y017309D01*
X013969Y017190D01*
X014123Y017127D01*
X014290Y017127D01*
X014444Y017190D01*
X014563Y017309D01*
X014627Y017463D01*
X014627Y017630D01*
X014563Y017784D01*
X014444Y017903D01*
X014290Y017967D01*
X014123Y017967D01*
X013969Y017903D01*
X013850Y017784D01*
X013823Y017717D02*
X012987Y017717D01*
X013106Y017599D02*
X013787Y017599D01*
X013787Y017480D02*
X013224Y017480D01*
X013343Y017362D02*
X013829Y017362D01*
X013916Y017243D02*
X013461Y017243D01*
X013580Y017125D02*
X015000Y017125D01*
X014957Y017243D02*
X014497Y017243D01*
X014585Y017362D02*
X014914Y017362D01*
X014848Y017480D02*
X014627Y017480D01*
X014627Y017599D02*
X014780Y017599D01*
X014711Y017717D02*
X014591Y017717D01*
X014643Y017836D02*
X014511Y017836D01*
X014566Y017954D02*
X014320Y017954D01*
X014466Y018073D02*
X012632Y018073D01*
X012750Y017954D02*
X014093Y017954D01*
X014367Y018191D02*
X011452Y018191D01*
X011334Y018073D02*
X011601Y018073D01*
X011483Y017954D02*
X011215Y017954D01*
X011097Y017836D02*
X011364Y017836D01*
X011246Y017717D02*
X010978Y017717D01*
X010860Y017599D02*
X011127Y017599D01*
X010711Y018073D02*
X010492Y018073D01*
X010376Y018191D02*
X010830Y018191D01*
X010948Y018310D02*
X010459Y018310D01*
X010527Y018428D02*
X011067Y018428D01*
X011185Y018547D02*
X010561Y018547D01*
X010561Y018665D02*
X011304Y018665D01*
X011307Y018784D02*
X010524Y018784D01*
X010452Y018902D02*
X011344Y018902D01*
X011433Y019021D02*
X010294Y019021D01*
X009908Y019021D02*
X009506Y019021D01*
X009665Y018902D02*
X009750Y018902D01*
X009121Y019021D02*
X008719Y019021D01*
X008877Y018902D02*
X008963Y018902D01*
X008334Y019021D02*
X007932Y019021D01*
X008090Y018902D02*
X008175Y018902D01*
X007546Y019021D02*
X007144Y019021D01*
X007303Y018902D02*
X007388Y018902D01*
X006759Y019021D02*
X006357Y019021D01*
X006515Y018902D02*
X006601Y018902D01*
X005971Y019021D02*
X005569Y019021D01*
X005728Y018902D02*
X005813Y018902D01*
X005184Y019021D02*
X004782Y019021D01*
X004940Y018902D02*
X005026Y018902D01*
X004397Y019021D02*
X003995Y019021D01*
X004153Y018902D02*
X004238Y018902D01*
X003609Y019021D02*
X003207Y019021D01*
X003365Y018902D02*
X003451Y018902D01*
X002822Y019021D02*
X002087Y019021D01*
X002087Y019139D02*
X013110Y019139D01*
X013335Y019021D02*
X011940Y019021D01*
X012029Y018902D02*
X013541Y018902D01*
X013734Y018784D02*
X012067Y018784D01*
X012067Y018665D02*
X013876Y018665D01*
X014017Y018547D02*
X012019Y018547D01*
X011915Y018428D02*
X014158Y018428D01*
X014267Y018310D02*
X011571Y018310D01*
X012335Y019376D02*
X002146Y019376D01*
X002089Y019258D02*
X012784Y019258D01*
X013698Y017006D02*
X015043Y017006D01*
X015086Y016888D02*
X013817Y016888D01*
X013935Y016769D02*
X015126Y016769D01*
X015147Y016651D02*
X013967Y016651D01*
X013967Y016532D02*
X015168Y016532D01*
X015189Y016414D02*
X013967Y016414D01*
X013967Y016295D02*
X015210Y016295D01*
X015231Y016177D02*
X013990Y016177D01*
X013990Y016058D02*
X015238Y016058D01*
X015243Y015940D02*
X013990Y015940D01*
X013990Y015821D02*
X015247Y015821D01*
X015247Y015703D02*
X014489Y015703D01*
X014608Y015584D02*
X015247Y015584D01*
X015247Y015466D02*
X014697Y015466D01*
X014697Y015347D02*
X015247Y015347D01*
X015247Y015229D02*
X014697Y015229D01*
X014697Y015110D02*
X015247Y015110D01*
X015247Y014992D02*
X014581Y014992D01*
X014462Y014873D02*
X015247Y014873D01*
X015247Y014755D02*
X014140Y014755D01*
X014140Y014636D02*
X015247Y014636D01*
X015247Y014518D02*
X014107Y014518D01*
X013763Y015229D02*
X013403Y015229D01*
X013378Y015110D02*
X013285Y015110D01*
X013260Y014992D02*
X013166Y014992D01*
X013433Y015347D02*
X013763Y015347D01*
X013763Y015466D02*
X013433Y015466D01*
X013759Y015584D02*
X013852Y015584D01*
X013877Y015703D02*
X013971Y015703D01*
X013527Y016532D02*
X013294Y016532D01*
X013294Y016651D02*
X013431Y016651D01*
X013313Y016769D02*
X013294Y016769D01*
X013267Y016414D02*
X013196Y016414D01*
X013149Y016295D02*
X013078Y016295D01*
X013056Y016177D02*
X012737Y016177D01*
X012737Y016058D02*
X013056Y016058D01*
X013056Y015940D02*
X012722Y015940D01*
X012675Y015821D02*
X012604Y015821D01*
X012556Y015703D02*
X012485Y015703D01*
X012354Y015110D02*
X012647Y015110D01*
X012766Y014992D02*
X012473Y014992D01*
X011344Y016414D02*
X010375Y016414D01*
X010159Y016177D02*
X010138Y016177D01*
X009277Y015592D02*
X009277Y015462D01*
X009022Y015462D02*
X009022Y015592D01*
X008767Y015592D02*
X008767Y015462D01*
X008512Y015462D02*
X008512Y015592D01*
X008252Y015592D02*
X008252Y015462D01*
X007997Y015462D02*
X007997Y015592D01*
X007742Y015592D02*
X007742Y015462D01*
X007487Y015462D02*
X007487Y015592D01*
X007232Y015592D02*
X007232Y015462D01*
X006972Y015462D02*
X006972Y015592D01*
X006717Y015592D02*
X006717Y015462D01*
X006462Y015462D02*
X006462Y015592D01*
X006207Y015592D02*
X006207Y015462D01*
X005952Y015462D02*
X005952Y015592D01*
X005692Y015592D02*
X005692Y015462D01*
X005468Y014755D02*
X004465Y014755D01*
X004584Y014636D02*
X005470Y014636D01*
X005589Y014518D02*
X004635Y014518D01*
X004635Y014399D02*
X007017Y014399D01*
X007017Y014281D02*
X004627Y014281D01*
X004509Y014162D02*
X007017Y014162D01*
X007017Y014044D02*
X005096Y014044D01*
X005195Y013925D02*
X007017Y013925D01*
X007017Y013807D02*
X005195Y013807D01*
X005256Y013688D02*
X007017Y013688D01*
X007017Y013570D02*
X006895Y013570D01*
X007013Y013451D02*
X007017Y013451D01*
X007232Y012562D02*
X007232Y012407D01*
X007487Y012407D02*
X007487Y012512D01*
X007742Y012512D02*
X007742Y012407D01*
X007997Y012407D02*
X007997Y012512D01*
X008252Y012512D02*
X008252Y012407D01*
X008450Y012266D02*
X008568Y012266D01*
X008512Y012202D02*
X008512Y012512D01*
X008509Y012503D02*
X008509Y012503D01*
X008509Y012385D02*
X008509Y012385D01*
X008509Y012622D02*
X008509Y012622D01*
X008509Y012654D02*
X008509Y013009D01*
X008497Y013009D01*
X008497Y013129D01*
X008460Y013218D01*
X008393Y013285D01*
X008182Y013496D01*
X008182Y014458D01*
X008405Y014458D01*
X008615Y014668D01*
X008615Y014965D01*
X008570Y015010D01*
X008812Y015010D01*
X008818Y015004D01*
X008638Y014825D01*
X008638Y014528D01*
X008777Y014390D01*
X008777Y013855D01*
X008957Y013675D01*
X008957Y013428D01*
X008695Y013167D01*
X008567Y013038D01*
X008567Y013009D01*
X008509Y013009D01*
X008509Y012654D01*
X008509Y012654D01*
X008509Y012740D02*
X008509Y012740D01*
X008509Y012859D02*
X008509Y012859D01*
X008509Y012977D02*
X008509Y012977D01*
X008497Y013096D02*
X008624Y013096D01*
X008743Y013214D02*
X008461Y013214D01*
X008345Y013333D02*
X008861Y013333D01*
X008957Y013451D02*
X008226Y013451D01*
X008182Y013570D02*
X008957Y013570D01*
X008944Y013688D02*
X008182Y013688D01*
X008182Y013807D02*
X008825Y013807D01*
X008777Y013925D02*
X008182Y013925D01*
X008182Y014044D02*
X008777Y014044D01*
X008777Y014162D02*
X008182Y014162D01*
X008182Y014281D02*
X008777Y014281D01*
X008767Y014399D02*
X008182Y014399D01*
X008464Y014518D02*
X008649Y014518D01*
X008638Y014636D02*
X008583Y014636D01*
X008615Y014755D02*
X008638Y014755D01*
X008615Y014873D02*
X008686Y014873D01*
X008588Y014992D02*
X008805Y014992D01*
X008257Y014817D02*
X008132Y014817D01*
X007942Y014627D01*
X007942Y013397D01*
X008257Y013082D01*
X008257Y013017D01*
X008767Y012512D02*
X008767Y012407D01*
X009022Y012407D02*
X009022Y012512D01*
X009277Y012512D02*
X009277Y012407D01*
X009656Y012385D02*
X010556Y012385D01*
X010624Y012503D02*
X009974Y012503D01*
X010857Y012503D02*
X010937Y012503D01*
X010937Y012385D02*
X010857Y012385D01*
X010857Y012148D02*
X010937Y012148D01*
X010937Y012029D02*
X010857Y012029D01*
X011147Y010787D02*
X011257Y010677D01*
X011257Y010417D01*
X011417Y010257D01*
X011700Y010257D01*
X011741Y010297D02*
X011741Y009817D01*
X012001Y008948D02*
X012112Y008948D01*
X012671Y008948D02*
X012992Y008948D01*
X012992Y008830D02*
X010837Y008830D01*
X010837Y008711D02*
X013012Y008711D01*
X012992Y009067D02*
X012768Y009067D01*
X012906Y009185D02*
X013083Y009185D01*
X013025Y009304D02*
X013202Y009304D01*
X013017Y008119D02*
X010443Y008119D01*
X010385Y007645D02*
X011458Y007645D01*
X011997Y007171D02*
X013069Y007171D01*
X012992Y007052D02*
X011879Y007052D01*
X011923Y006697D02*
X013026Y006697D01*
X012992Y006815D02*
X008767Y006815D01*
X008649Y006934D02*
X012992Y006934D01*
X013671Y007289D02*
X014187Y007289D01*
X014069Y007171D02*
X013790Y007171D01*
X013867Y007052D02*
X013992Y007052D01*
X013992Y006934D02*
X013867Y006934D01*
X013867Y006815D02*
X013992Y006815D01*
X014026Y006697D02*
X013832Y006697D01*
X013714Y006578D02*
X014145Y006578D01*
X014031Y006104D02*
X013856Y006104D01*
X013867Y005986D02*
X014012Y005986D01*
X014012Y005867D02*
X013867Y005867D01*
X013867Y005749D02*
X014012Y005749D01*
X014121Y005630D02*
X013766Y005630D01*
X013647Y005512D02*
X014239Y005512D01*
X014173Y005275D02*
X013657Y005275D01*
X013776Y005156D02*
X014054Y005156D01*
X013992Y005038D02*
X013847Y005038D01*
X013448Y005038D02*
X013410Y005038D01*
X013410Y005156D02*
X013448Y005156D01*
X013448Y005275D02*
X013410Y005275D01*
X013410Y004801D02*
X013448Y004801D01*
X013448Y004682D02*
X013410Y004682D01*
X013410Y004564D02*
X013448Y004564D01*
X013634Y004327D02*
X013737Y004327D01*
X013703Y003497D02*
X013633Y003497D01*
X013584Y003379D02*
X012657Y003379D01*
X012538Y003497D02*
X013226Y003497D01*
X013158Y003260D02*
X012775Y003260D01*
X012894Y003142D02*
X013040Y003142D01*
X013055Y002668D02*
X012967Y002668D01*
X012967Y002549D02*
X013174Y002549D01*
X012967Y002431D02*
X015247Y002431D01*
X015232Y002312D02*
X012967Y002312D01*
X012967Y002194D02*
X015161Y002194D01*
X014174Y002549D02*
X013685Y002549D01*
X013803Y002668D02*
X014055Y002668D01*
X013992Y002786D02*
X013867Y002786D01*
X013867Y002905D02*
X013992Y002905D01*
X013992Y003023D02*
X013867Y003023D01*
X013970Y003142D02*
X014040Y003142D01*
X014088Y003260D02*
X014158Y003260D01*
X014177Y003379D02*
X014189Y003379D01*
X014177Y003497D02*
X014189Y003497D01*
X014686Y005275D02*
X014709Y005275D01*
X011487Y004445D02*
X011238Y004445D01*
X011238Y004448D02*
X011238Y004249D01*
X011227Y004208D01*
X011238Y004327D02*
X011487Y004327D01*
X010920Y004327D02*
X010843Y004327D01*
X010843Y004445D02*
X010920Y004445D01*
X010920Y004564D02*
X010843Y004564D01*
X010843Y004682D02*
X010920Y004682D01*
X010920Y004801D02*
X010843Y004801D01*
X011156Y005156D02*
X009306Y005156D01*
X009197Y005275D02*
X011127Y005275D01*
X011127Y005393D02*
X009800Y005393D01*
X009890Y005512D02*
X011015Y005512D01*
X010988Y005630D02*
X009927Y005630D01*
X009927Y005749D02*
X010988Y005749D01*
X011020Y005867D02*
X009879Y005867D01*
X009775Y005986D02*
X011139Y005986D01*
X011274Y005038D02*
X009554Y005038D01*
X010843Y004208D02*
X010920Y004208D01*
X009908Y007645D02*
X008310Y007645D01*
X009390Y009659D02*
X005433Y009659D01*
X005315Y009778D02*
X007997Y009778D01*
X007950Y010370D02*
X007784Y010370D01*
X007666Y010489D02*
X007991Y010489D01*
X007968Y010607D02*
X007547Y010607D01*
X007429Y010726D02*
X007968Y010726D01*
X007968Y010844D02*
X007310Y010844D01*
X007192Y010963D02*
X007968Y010963D01*
X008020Y011081D02*
X007073Y011081D01*
X006955Y011200D02*
X008284Y011200D01*
X008307Y011081D02*
X008383Y011081D01*
X008383Y010963D02*
X008307Y010963D01*
X008307Y010844D02*
X008383Y010844D01*
X008627Y011197D02*
X009107Y011197D01*
X008840Y011437D02*
X008726Y011437D01*
X008627Y011197D02*
X008147Y011677D01*
X008147Y012027D01*
X008527Y012029D02*
X008847Y012029D01*
X008824Y012148D02*
X008508Y012148D01*
X008510Y011911D02*
X008876Y011911D01*
X008954Y011792D02*
X008449Y011792D01*
X008166Y011318D02*
X006836Y011318D01*
X006718Y011437D02*
X008047Y011437D01*
X007937Y011555D02*
X006707Y011555D01*
X006707Y011674D02*
X007907Y011674D01*
X007844Y011792D02*
X007789Y011792D01*
X007364Y011792D02*
X007209Y011792D01*
X006804Y011792D02*
X006719Y011792D01*
X006267Y011674D02*
X006071Y011674D01*
X006130Y011792D02*
X006254Y011792D01*
X006152Y011911D02*
X006147Y011911D01*
X006135Y011555D02*
X006267Y011555D01*
X006267Y011437D02*
X006135Y011437D01*
X006135Y011318D02*
X006267Y011318D01*
X006332Y011200D02*
X006026Y011200D01*
X005071Y011911D02*
X004967Y011911D01*
X005692Y012407D02*
X005692Y012537D01*
X005947Y012547D02*
X005947Y012407D01*
X006207Y012407D02*
X006207Y012552D01*
X006462Y012587D02*
X006462Y012407D01*
X006717Y012407D02*
X006717Y012532D01*
X006972Y012507D02*
X006972Y012407D01*
X006939Y014518D02*
X006064Y014518D01*
X006183Y014636D02*
X006878Y014636D01*
X006878Y014755D02*
X006185Y014755D01*
X006224Y014873D02*
X006878Y014873D01*
X006995Y014992D02*
X006343Y014992D01*
X004577Y014044D02*
X004497Y014044D01*
X003587Y013109D02*
X002935Y013761D01*
X003051Y013214D02*
X003142Y013214D01*
X002464Y014518D02*
X002087Y014518D01*
X002087Y014636D02*
X002418Y014636D01*
X002087Y015466D02*
X003439Y015466D01*
X003788Y016058D02*
X004432Y016058D01*
X004315Y016177D02*
X003788Y016177D01*
X003742Y016295D02*
X003951Y016295D01*
X003851Y016414D02*
X003793Y016414D01*
X003158Y017006D02*
X003075Y017006D01*
X003187Y017125D02*
X002087Y017125D01*
X002087Y017243D02*
X003187Y017243D01*
X003186Y017362D02*
X002087Y017362D01*
X002087Y017480D02*
X002727Y017480D01*
X002728Y017480D02*
X002784Y017439D01*
X002846Y017407D01*
X002911Y017386D01*
X002980Y017375D01*
X002996Y017375D01*
X002996Y017796D01*
X002575Y017796D01*
X002575Y017781D01*
X002585Y017712D01*
X002607Y017646D01*
X002638Y017585D01*
X002679Y017528D01*
X002728Y017480D01*
X002631Y017599D02*
X002087Y017599D01*
X002087Y017717D02*
X002585Y017717D01*
X002575Y017836D02*
X002087Y017836D01*
X002087Y017954D02*
X002597Y017954D01*
X002658Y018073D02*
X002087Y018073D01*
X002087Y018191D02*
X002783Y018191D01*
X002657Y018310D02*
X002087Y018310D01*
X002087Y018428D02*
X002589Y018428D01*
X002555Y018547D02*
X002087Y018547D01*
X002087Y018665D02*
X002555Y018665D01*
X002592Y018784D02*
X002087Y018784D01*
X002087Y018902D02*
X002664Y018902D01*
X002996Y017717D02*
X003033Y017717D01*
X003033Y017599D02*
X002996Y017599D01*
X002996Y017480D02*
X003033Y017480D01*
X002467Y017006D02*
X002087Y017006D01*
X002087Y016888D02*
X002397Y016888D01*
X002394Y016769D02*
X002087Y016769D01*
X002087Y016651D02*
X002394Y016651D01*
X002394Y016532D02*
X002087Y016532D01*
X002087Y016414D02*
X002441Y016414D01*
X002422Y016295D02*
X002087Y016295D01*
X002087Y016177D02*
X002385Y016177D01*
X002385Y016058D02*
X002087Y016058D01*
X002087Y015940D02*
X002385Y015940D01*
X002385Y015821D02*
X002087Y015821D01*
X002087Y015703D02*
X002385Y015703D01*
X002476Y015584D02*
X002087Y015584D01*
X009148Y009847D02*
X009148Y009847D01*
X009893Y014992D02*
X009986Y014992D01*
X007793Y003853D02*
X003967Y003853D01*
D36*
X013137Y011657D02*
X013337Y011657D01*
X013337Y011937D01*
X013237Y012027D02*
X013137Y012027D01*
X013137Y011657D01*
X013537Y011657D02*
X013537Y011457D01*
D37*
X007477Y007027D02*
X007275Y007228D01*
X007275Y007935D01*
D38*
X006177Y007277D02*
X005176Y006286D01*
X003297Y006286D01*
X003297Y005217D01*
X013237Y011697D02*
X013237Y011862D01*
D39*
X002787Y012337D03*
D40*
X011737Y002717D02*
X011737Y002247D01*
X012762Y002247D01*
X012762Y002717D01*
X011747Y002717D01*
X012102Y002712D02*
X012102Y002257D01*
X012437Y002257D02*
X012437Y002717D01*
X012422Y002717D01*
M02*
