%
M48
M72
T01C0.0080
T02C0.0197
T03C0.0236
T04C0.0315
T05C0.0374
T06C0.0400
T07C0.0480
%
T01
X12957Y12027
X13237Y12027
X13517Y12027
T02
X12987Y10397
X10977Y10787
X10207Y10677
X9817Y11357
X9107Y11197
X7577Y10867
X7507Y9787
X7577Y12087
X7007Y12097
X5777Y11457
X4767Y12217
X4837Y13797
X4277Y14437
X3797Y15317
X5827Y14787
X7237Y14727
X7557Y14167
X8257Y14817
X8997Y14677
X9397Y14037
X9797Y13397
X10227Y14727
X10827Y16317
X10147Y7377
X11347Y5687
X11697Y6417
X11707Y7387
X7477Y7027
X6177Y7277
X3657Y10277
X3297Y5217
T03
X2787Y12337
T04
X3015Y17815
X3015Y18603
X3802Y18603
X3802Y17815
X4589Y17815
X4589Y18603
X5377Y18603
X5377Y17815
X6164Y17815
X6164Y18603
X6952Y18603
X6952Y17815
X7739Y17815
X7739Y18603
X8526Y18603
X8526Y17815
X9314Y17815
X9314Y18603
X10101Y18603
X10101Y17815
X13429Y8912
X13429Y7912
X13429Y6912
X13429Y5912
X13429Y4912
X13429Y3912
X13429Y2912
X14429Y2912
X14429Y3912
X14429Y4912
X14429Y5912
X14429Y6912
X14429Y7912
X14429Y8912
T05
X13673Y14745
X14230Y15301
X13523Y16009
X12966Y15452
X12270Y16148
X12827Y16705
X12120Y17412
X11563Y16855
T06
X2935Y14761
X2935Y13761
T07
X3717Y4197
X14207Y17547
M30
